<svg width="320" height="214" viewBox="0 0 320 214" fill="none" xmlns="http://www.w3.org/2000/svg">
<path d="M38.5416 22.0834C38.2968 21.7884 42.2668 21.7709 74.0368 21.7709C85.9551 21.7709 97.8734 21.7709 109.792 21.7709C109.826 21.7709 109.861 21.7709 109.896 21.7709C110.035 21.9096 110.173 22.0488 110.312 22.1875C110.347 22.2221 110.382 22.2571 110.417 22.2917C110.521 22.4655 110.625 22.6388 110.729 22.8125C110.764 22.8471 110.798 22.8821 110.833 22.9167C110.972 23.125 111.111 23.3334 111.25 23.5417C111.319 23.6113 111.389 23.6805 111.458 23.75C111.458 23.7846 111.458 23.8196 111.458 23.8542C111.493 23.8888 111.528 23.9238 111.562 23.9584C111.597 24.028 111.632 24.0971 111.667 24.1667C111.736 24.2363 111.806 24.3055 111.875 24.375C111.979 24.5488 112.083 24.7221 112.187 24.8959C112.222 24.9305 112.257 24.9655 112.292 25C112.431 25.2084 112.569 25.4167 112.708 25.625C112.743 25.6596 112.778 25.6946 112.812 25.7292C112.951 25.9375 113.09 26.1459 113.229 26.3542C113.264 26.3888 113.298 26.4238 113.333 26.4584C113.437 26.6321 113.542 26.8057 113.646 26.9792C113.681 27.014 113.715 27.0486 113.75 27.0834C114.192 27.7694 114.426 28.1211 114.556 28.3073C114.634 28.4202 114.713 28.533 114.792 28.6459C114.826 28.6807 114.861 28.7152 114.896 28.75C114.965 28.8542 115.035 28.9584 115.104 29.0625C115.139 29.0973 115.173 29.1319 115.208 29.1667C115.312 29.3402 115.417 29.514 115.521 29.6875C115.556 29.7223 115.59 29.7569 115.625 29.7917C115.937 30.2432 116.25 30.6944 116.562 31.1459C116.597 31.1807 116.632 31.2152 116.667 31.25C116.771 31.4236 116.875 31.5973 116.979 31.7709C117.014 31.8057 117.048 31.8402 117.083 31.875C117.222 32.0834 117.361 32.2917 117.5 32.5C117.535 32.5348 117.569 32.5694 117.604 32.6042C117.847 32.9861 118.09 33.3682 118.333 33.75C118.403 33.8194 118.472 33.889 118.542 33.9584C118.646 34.1319 118.75 34.3057 118.854 34.4792C118.889 34.514 118.923 34.5486 118.958 34.5834C119.062 34.7569 119.167 34.9307 119.271 35.1042C119.306 35.139 119.34 35.1736 119.375 35.2084C120.271 36.5563 120.575 37.0015 120.63 37.0675C120.663 37.1075 120.696 37.1475 120.729 37.1875C120.764 37.2223 120.798 37.2569 120.833 37.2917C120.937 37.4652 121.042 37.639 121.146 37.8125C121.181 37.8473 121.215 37.8819 121.25 37.9167C121.528 38.3334 121.806 38.75 122.083 39.1667C122.118 39.2015 122.153 39.2361 122.187 39.2709C122.326 39.4792 122.465 39.6875 122.604 39.8959C122.639 39.9307 122.673 39.9652 122.708 40C122.812 40.1736 122.917 40.3473 123.021 40.5209C123.056 40.5557 123.09 40.5902 123.125 40.625C123.403 41.0417 123.681 41.4584 123.958 41.875C123.993 41.9098 124.028 41.9444 124.062 41.9792C124.097 42.0486 124.132 42.1182 124.167 42.1875C124.201 42.2223 124.236 42.2569 124.271 42.2917C124.306 42.3611 124.34 42.4307 124.375 42.5C124.444 42.5694 124.514 42.639 124.583 42.7084C124.687 42.8819 124.792 43.0557 124.896 43.2292C124.931 43.264 124.965 43.2986 125 43.3334C126.213 45.1598 126.611 45.7457 126.668 45.8138C126.702 45.855 126.737 45.8963 126.771 45.9375C126.806 45.9723 126.84 46.0069 126.875 46.0417C127.75 47.3738 128.055 47.819 128.117 47.8907C128.154 47.934 128.192 47.9775 128.229 48.0209C128.264 48.0557 128.298 48.0902 128.333 48.125C128.437 48.2986 128.542 48.4723 128.646 48.6459C128.681 48.6807 128.715 48.7152 128.75 48.75C129.028 49.1667 129.306 49.5834 129.583 50C129.618 50.0348 129.653 50.0694 129.687 50.1042C129.826 50.3125 129.965 50.5209 130.104 50.7292C130.139 50.764 130.173 50.7986 130.208 50.8334C130.312 51.0069 130.417 51.1807 130.521 51.3542C130.556 51.389 130.59 51.4236 130.625 51.4584C131.838 53.2848 132.236 53.8707 132.293 53.9388C132.327 53.98 132.362 54.0213 132.396 54.0625C132.431 54.0971 132.465 54.1321 132.5 54.1667C133.386 55.4988 133.784 56.0846 133.957 56.3282C134.061 56.4759 134.166 56.6232 134.271 56.7709C134.306 56.8055 134.34 56.8405 134.375 56.875C135.59 58.6915 136.082 59.418 136.252 59.6615C136.356 59.8092 136.459 59.9565 136.562 60.1042C136.597 60.1388 136.632 60.1738 136.667 60.2084C137.562 61.5561 137.867 62.0015 137.922 62.0675C137.955 62.1075 137.988 62.1475 138.021 62.1875C138.056 62.2221 138.09 62.2571 138.125 62.2917C138.516 62.9098 139.326 64.115 139.934 64.9815C140.06 65.1613 140.186 65.3411 140.312 65.5209C140.347 65.5555 140.382 65.5905 140.417 65.625C140.833 66.25 141.25 66.875 141.667 67.5C141.736 67.5696 141.806 67.6388 141.875 67.7084C142.118 68.0905 142.361 68.4721 142.604 68.8542C142.639 68.8888 142.673 68.9238 142.708 68.9584C143.072 69.5305 143.259 69.8117 143.359 69.9525C143.42 70.0377 143.481 70.1232 143.542 70.2084C143.611 70.278 143.681 70.3471 143.75 70.4167C143.819 70.5555 143.889 70.6946 143.958 70.8334C144.028 70.903 144.097 70.9721 144.167 71.0417C144.271 71.2155 144.375 71.3888 144.479 71.5625C144.514 71.5971 144.548 71.6321 144.583 71.6667C144.981 72.2952 145.568 73.1615 146.86 75.0261C147.143 75.4342 147.426 75.8419 147.708 76.25C147.778 76.3196 147.847 76.3888 147.917 76.4584C148.021 76.6321 148.125 76.8055 148.229 76.9792C148.264 77.0138 148.298 77.0488 148.333 77.0834C148.437 77.2571 148.542 77.4305 148.646 77.6042C148.681 77.6388 148.715 77.6738 148.75 77.7084C148.889 77.9167 149.028 78.125 149.167 78.3334C149.236 78.403 149.306 78.4721 149.375 78.5417C149.479 78.7155 149.583 78.8888 149.687 79.0625C149.722 79.0971 149.757 79.1321 149.792 79.1667C149.896 79.3405 150 79.5138 150.104 79.6875C150.139 79.7221 150.173 79.7571 150.208 79.7917C150.347 80.0346 150.486 80.278 150.625 80.5209C149.806 79.4727 149.139 78.5296 146.022 74.0105C145.389 73.0938 144.61 71.9688 144.29 71.5105C143.97 71.0521 143.191 69.924 142.557 69.0034C141.329 67.218 138.417 62.9969 137.639 61.875C137.381 61.5025 136.087 59.6275 134.764 57.7084C133.441 55.7892 131.625 53.1642 130.728 51.875C129.832 50.5859 128.751 49.0263 128.325 48.409C127.9 47.7915 127.304 46.9323 127.001 46.4998C126.698 46.0673 125.897 44.9082 125.222 43.9244C124.547 42.9405 123.198 40.9871 122.224 39.5834C121.251 38.1796 119.711 35.9532 118.802 34.6355C117.11 32.1815 115.621 30.0373 113.125 26.4584C112.346 25.3413 111.387 23.9584 110.994 23.3855C110.602 22.8125 110.186 22.2382 110.07 22.1092C110 22.0311 109.929 21.953 109.859 21.8748C97.9688 21.8834 86.0784 21.8921 74.188 21.9009C62.2978 21.9096 50.4074 21.9184 38.517 21.9271C38.7122 22.2136 38.9074 22.5 39.1022 22.7865C39.2972 23.073 39.4924 23.3594 39.6874 23.6459C39.277 23.2019 39.0191 22.8502 38.8497 22.5782C38.747 22.4134 38.6443 22.2482 38.5416 22.0834Z" fill="white"/>
<path d="M209.062 23.2292C209.392 22.7392 209.722 22.2492 210.052 21.7594C220.865 21.7613 231.678 21.7631 242.491 21.7648C260.332 21.7679 274.951 21.7915 274.977 21.8173C275.003 21.8431 274.831 22.1246 274.595 22.4427C274.452 22.6354 274.309 22.8281 274.167 23.0209C274.392 22.6392 274.618 22.2573 274.844 21.8759C264.062 21.8769 253.281 21.8779 242.5 21.8792C231.719 21.8802 220.937 21.8815 210.156 21.8825C210.069 22.0061 209.983 22.13 209.896 22.2536C209.752 22.4575 209.506 22.7607 209.349 22.9269C209.253 23.0275 209.158 23.1284 209.062 23.2292Z" fill="white"/>
<path d="M177.708 103.646C177.47 103.64 176.99 103.09 175.491 101.104C175.192 100.709 174.82 100.216 174.664 100.01C174.508 99.8042 174.261 99.4713 174.115 99.2709C173.969 99.0704 173.721 98.7373 173.565 98.5306C170.668 94.6996 170.757 94.8192 170.212 94.0159C170.072 93.8092 169.932 93.6027 169.792 93.3961C169.792 92.6913 169.792 91.9863 169.792 91.2815C169.792 90.5765 169.792 89.8717 169.792 89.1667C169.828 90.5565 169.864 91.9461 169.9 93.3359C171.171 95.0281 172.441 96.7204 173.711 98.4127C175.807 101.205 177.564 103.525 177.615 103.568C177.646 103.594 177.677 103.62 177.708 103.646Z" fill="white"/>
<path d="M47.9165 35.6251C47.0209 34.2771 46.7161 33.8319 46.6615 33.7659C46.6284 33.7259 46.5955 33.6859 46.5624 33.6459C46.6243 33.5571 46.9609 34.0026 47.3503 34.5782C47.7399 35.1538 48.0268 35.6251 47.9876 35.6251C47.9638 35.6251 47.9401 35.6251 47.9165 35.6251Z" fill="white"/>
<path d="M52.2915 41.7709C51.9563 41.3269 51.6515 40.905 51.3982 40.5469C51.2447 40.3298 51.0909 40.113 50.9374 39.8959C50.9936 39.8555 51.3218 40.2775 51.7028 40.8073C51.9338 41.1286 52.1649 41.4496 52.3957 41.7709C52.3609 41.7709 52.3263 41.7709 52.2915 41.7709Z" fill="white"/>
<path d="M136.25 98.75C135.798 98.0554 135.347 97.3613 134.896 96.6667C136.066 98.2767 136.371 98.7454 136.328 98.7471C136.302 98.7481 136.276 98.749 136.25 98.75Z" fill="white"/>
<path d="M146.979 86.3542C146.528 86.9792 146.076 87.6042 145.625 88.2292C146.664 86.655 146.968 86.2331 146.972 86.276C146.974 86.3021 146.977 86.3281 146.979 86.3542Z" fill="white"/>
<path d="M148.854 83.5417C148.542 84.0279 148.229 84.5138 147.917 85C147.928 84.8056 148.139 84.4775 148.392 84.1454C148.546 83.9442 148.7 83.7429 148.854 83.5417Z" fill="white"/>
<path d="M40.729 25.1042C40.477 24.9148 40.2426 24.6098 40.0455 24.3048C39.9261 24.1198 39.8068 23.935 39.6874 23.75C40.0347 24.2012 40.3818 24.6529 40.729 25.1042Z" fill="white"/>
<path d="M109.479 59.8959C109.322 59.8082 109.111 59.5267 108.909 59.2142C108.786 59.0246 108.664 58.8352 108.542 58.6459C108.854 59.0625 109.167 59.4792 109.479 59.8959Z" fill="white"/>
<path d="M108.125 57.9167C107.967 57.829 107.756 57.5475 107.554 57.235C107.432 57.0454 107.31 56.8561 107.187 56.6667C107.5 57.0834 107.812 57.5 108.125 57.9167Z" fill="white"/>
<path d="M134.896 96.5625C134.618 96.2154 134.34 95.8679 134.062 95.5208C134.119 95.4804 134.306 95.7148 134.515 96.0156C134.642 96.1979 134.769 96.3802 134.896 96.5625Z" fill="white"/>
<path d="M137.604 99.8958C137.401 100.127 137.307 100.068 137.073 99.7656C136.972 99.6354 136.871 99.5052 136.771 99.375C137.23 99.8906 137.413 100.005 137.481 99.9654C137.522 99.9423 137.563 99.919 137.604 99.8958Z" fill="white"/>
<path d="M144.583 89.7917C144.514 89.9304 144.444 90.0696 144.375 90.2084C144.263 90.1238 144.31 90.03 144.407 89.9454C144.466 89.8942 144.524 89.8429 144.583 89.7917Z" fill="white"/>
<path d="M52.5 41.9792C52.4306 41.9098 52.361 41.8402 52.2916 41.7709C52.3264 41.7709 52.361 41.7709 52.3958 41.7709C52.4306 41.8402 52.4652 41.9098 52.5 41.9792Z" fill="white"/>
<path d="M260.833 42.1875C260.466 42.6015 260.316 42.6031 241.743 42.6038C235.502 42.604 229.261 42.604 223.021 42.6042C258.181 42.5058 260.499 42.4802 260.655 42.3435C260.714 42.2915 260.774 42.2396 260.833 42.1875Z" fill="white"/>
<path d="M143.75 91.0417C143.646 91.2154 143.542 91.3888 143.438 91.5625C143.594 91.1588 143.664 91.0417 143.694 91.0417C143.713 91.0417 143.732 91.0417 143.75 91.0417Z" fill="white"/>
<path d="M103.021 50.5208C102.212 49.516 101.311 48.2662 100.243 46.6667C99.9175 46.1796 99.5593 45.6775 99.4466 45.5506C99.3339 45.424 99.1898 45.2292 99.126 45.1179C98.8881 44.7015 97.7687 43.0642 97.5681 42.8385C97.4985 42.7604 97.4289 42.6823 97.3593 42.6042C89.9468 42.6042 82.5343 42.6042 75.1218 42.6042C53.0002 42.6042 52.8833 42.6031 52.7441 42.3958C52.6975 42.3265 52.6508 42.2569 52.6041 42.1875C52.6389 42.1875 52.6735 42.1875 52.7083 42.1875C52.9285 42.4817 55.5373 42.5 75.2066 42.5C82.6281 42.5 90.0495 42.5 97.471 42.5C98.0054 43.2712 98.5395 44.0425 99.0739 44.8138C99.9558 46.0863 101.204 47.891 101.849 48.8242C102.24 49.3898 102.63 49.9554 103.021 50.5208Z" fill="white"/>
<path d="M120 75.2083C119.324 74.28 118.973 73.7877 118.783 73.5156C118.668 73.3508 118.553 73.1856 118.437 73.0208C118.507 72.9244 118.858 73.4165 119.264 74.0523C119.509 74.4375 119.754 74.8231 120 75.2083Z" fill="white"/>
<path d="M147.5 85.5208C147.5 85.5554 147.5 85.5904 147.5 85.625C147.465 85.6596 147.431 85.6946 147.396 85.7291C147.292 85.9029 147.187 86.0762 147.083 86.25C146.984 86.1779 147.078 86.0137 147.228 85.8387C147.319 85.7327 147.409 85.6269 147.5 85.5208Z" fill="white"/>
<path d="M41.6666 26.4583C41.5091 26.3706 41.2981 26.0891 41.0962 25.7766C40.9737 25.5873 40.8516 25.3977 40.7291 25.2083C41.0416 25.625 41.3541 26.0416 41.6666 26.4583Z" fill="white"/>
<path d="M27.7114 125.625C27.7585 125.425 27.8957 124.581 28.0168 123.75C28.4451 120.806 28.4878 120.684 29.1264 120.564C29.3178 120.528 29.8855 120.551 30.3882 120.615C30.891 120.679 31.6772 120.777 32.1355 120.834C32.5939 120.89 33.4862 121.006 34.1185 121.091C35.8337 121.322 37.5178 121.527 38.8022 121.663C40.292 121.82 42.0116 122.032 44.271 122.336C45.2735 122.472 46.5862 122.639 47.1876 122.707C47.7891 122.776 48.797 122.904 49.4272 122.991C50.8178 123.183 51.7987 123.285 53.646 123.434C54.4193 123.495 55.4507 123.613 55.9376 123.695C56.4245 123.776 57.5026 123.916 58.3335 124.006C59.1643 124.096 60.172 124.215 60.573 124.269C60.9741 124.323 62.0289 124.44 62.9168 124.53C63.8047 124.619 64.7657 124.738 65.0522 124.794C65.3387 124.85 66.1355 124.946 66.823 125.006C67.5105 125.066 68.1432 125.134 68.2293 125.158C68.408 125.207 72.341 125.694 73.2814 125.783C73.6251 125.816 74.2893 125.888 74.7572 125.944C75.2253 126 76.0457 126.09 76.5801 126.144C77.1149 126.199 77.9741 126.293 78.4897 126.353C79.0053 126.414 79.7085 126.487 80.0522 126.515C80.396 126.544 80.9818 126.614 81.3543 126.671C81.7268 126.727 82.5237 126.817 83.1251 126.869C84.1076 126.955 86.4985 127.226 90.0522 127.654C90.7397 127.737 91.8178 127.856 92.448 127.92C93.0782 127.984 93.8518 128.078 94.1668 128.13C94.4818 128.182 95.4664 128.299 96.3543 128.389C97.2422 128.48 98.672 128.646 99.5314 128.758C100.391 128.871 101.773 129.03 102.604 129.113C103.435 129.195 104.865 129.357 105.781 129.472C106.698 129.587 108.479 129.804 109.74 129.955C111 130.105 112.313 130.264 112.656 130.309C113 130.353 113.315 130.371 113.356 130.348C113.397 130.324 114.147 130.399 115.022 130.514C116.543 130.713 119.079 131.021 121.094 131.253C121.61 131.312 122.406 131.406 122.865 131.463C123.323 131.52 124.754 131.682 126.044 131.824C127.334 131.965 129.326 132.201 130.471 132.349C131.616 132.497 133.208 132.684 134.011 132.764C135.663 132.929 136.918 133.066 138.281 133.232C138.797 133.294 139.43 133.365 139.688 133.39C139.945 133.414 140.273 133.458 140.417 133.488C140.56 133.517 141.404 133.635 142.292 133.749C143.18 133.864 144.101 133.987 144.339 134.023C144.696 134.076 144.789 134.053 144.872 133.893C144.927 133.785 145.003 132.878 145.04 131.875C145.13 129.492 145.472 125.868 145.74 124.479C145.8 124.164 145.99 123.331 146.162 122.627C146.333 121.924 146.458 121.3 146.438 121.242C146.415 121.171 143.535 121.129 137.79 121.115C131.061 121.098 129.149 121.065 129.047 120.964C128.669 120.585 128.913 120.574 137.892 120.548C144.724 120.528 146.634 120.494 146.734 120.391C146.969 120.151 147.376 118.876 147.256 118.756C147.18 118.68 143.882 118.646 136.666 118.646C127.733 118.646 126.156 118.624 125.984 118.497C125.42 118.081 125.542 118.075 136.843 118.021C146.294 117.975 147.644 117.949 147.714 117.813C147.759 117.726 147.966 117.281 148.175 116.823C149.098 114.796 150.457 112.914 151.857 111.723C153.727 110.132 155.174 109.369 157.162 108.926C157.749 108.795 158.275 108.642 158.33 108.586C158.388 108.529 158.477 106.731 158.538 104.373C158.678 98.975 158.685 98.9156 159.26 98.395C159.461 98.2131 159.48 98.0809 159.489 96.7809C159.509 93.8471 159.624 91.9788 159.792 91.8729C160.227 91.5975 160.23 91.6167 160.194 94.9529C160.183 96.0136 160.172 97.0742 160.161 98.1348C160.274 98.2231 160.387 98.3113 160.499 98.3994C161.133 98.8956 161.178 99.0886 161.262 101.667C161.303 102.956 161.342 104.995 161.347 106.198C161.353 107.401 161.392 108.439 161.434 108.504C161.476 108.569 161.909 108.701 162.396 108.797C163.873 109.089 165.343 109.689 166.563 110.497C167.186 110.91 169.792 113.383 169.792 113.561C169.792 113.604 169.923 113.793 170.085 113.981C170.596 114.578 171.264 115.81 171.711 116.979C171.875 117.409 172.055 117.819 172.111 117.89C172.191 117.992 174.571 118.026 183.155 118.046C194.57 118.074 194.791 118.083 193.815 118.491C193.495 118.625 192.001 118.646 182.978 118.646C175.779 118.646 172.491 118.68 172.445 118.755C172.408 118.815 172.452 119.023 172.544 119.216C172.635 119.409 172.74 119.723 172.776 119.914C172.812 120.104 172.888 120.319 172.944 120.391C173.024 120.493 174.927 120.521 181.827 120.521C186.657 120.521 190.682 120.549 190.773 120.584C190.863 120.619 190.938 120.736 190.938 120.844C190.938 120.996 190.858 121.044 190.599 121.051C188.872 121.101 184.024 121.14 179.193 121.143C177.24 121.144 175.287 121.145 173.333 121.146C173.333 121.22 173.333 121.294 173.333 121.368C173.333 121.49 173.494 122.252 173.689 123.061C173.885 123.87 174.119 125.094 174.21 125.781C174.411 127.301 174.688 131.415 174.688 132.879C174.688 133.47 174.734 133.974 174.791 134.01C174.847 134.045 175.422 134.003 176.067 133.918C176.712 133.832 177.919 133.687 178.75 133.595C179.581 133.503 180.636 133.384 181.094 133.331C181.552 133.278 182.349 133.186 182.865 133.126C183.38 133.067 184.927 132.901 186.302 132.758C187.677 132.616 189.505 132.407 190.365 132.294C191.224 132.181 192.677 132.015 193.594 131.925C194.511 131.834 195.331 131.74 195.417 131.716C195.592 131.668 197.502 131.471 198.542 131.394C198.914 131.367 200.016 131.255 200.99 131.146C201.964 131.037 203.229 130.898 203.802 130.837C204.375 130.776 205.219 130.68 205.677 130.623C206.136 130.566 207.331 130.424 208.333 130.308C209.336 130.192 210.531 130.054 210.99 130.001C211.448 129.947 212.128 129.874 212.5 129.837C212.873 129.8 213.247 129.758 213.333 129.743C213.419 129.728 213.865 129.683 214.323 129.643C215.062 129.579 223.176 128.602 225.208 128.332C225.638 128.275 226.669 128.159 227.5 128.073C228.331 127.988 229.55 127.849 230.208 127.764C231.488 127.599 232.421 127.489 234.74 127.231C235.542 127.141 236.972 126.976 237.917 126.864C238.862 126.752 240.925 126.52 242.5 126.349C244.076 126.177 245.646 125.995 245.99 125.943C246.333 125.891 247.013 125.818 247.5 125.78C247.987 125.743 248.807 125.647 249.323 125.567C250.347 125.408 253.076 125.087 256.719 124.697C257.578 124.605 261.43 124.138 262.813 123.959C263.242 123.903 264.813 123.713 266.302 123.538C267.792 123.362 269.526 123.148 270.156 123.062C270.787 122.975 271.677 122.863 272.136 122.812C274.4 122.561 279.576 121.959 280.729 121.813C281.446 121.722 282.5 121.608 283.073 121.56C283.646 121.511 284.513 121.421 285 121.36C285.487 121.298 286.284 121.203 286.771 121.149C287.614 121.054 288.579 120.939 290.313 120.725C292.997 120.395 293.242 120.386 293.531 120.601C293.815 120.813 293.881 121.033 294.06 122.344C294.115 122.745 294.231 123.531 294.317 124.09C294.404 124.65 294.505 125.47 294.541 125.913C294.602 126.653 294.59 126.735 294.382 126.922C294.238 127.051 293.92 127.153 293.51 127.201C293.155 127.242 291.552 127.468 289.948 127.703C287.088 128.123 286.311 128.23 284.636 128.437C284.177 128.493 283.497 128.584 283.125 128.638C282.288 128.759 281.439 128.876 278.906 129.218C277.818 129.365 276.435 129.56 275.833 129.652C275.232 129.744 274.365 129.854 273.906 129.896C273.448 129.938 272.065 130.118 270.833 130.296C267.163 130.826 264.297 131.229 262.969 131.4C262.281 131.488 261.039 131.657 260.208 131.775C257.213 132.2 255.039 132.513 254.375 132.614C254.003 132.671 253.346 132.764 252.917 132.82C252.487 132.877 251.409 133.02 250.521 133.137C249.633 133.254 248.578 133.391 248.177 133.441C247.776 133.491 247.12 133.58 246.719 133.639C246.318 133.698 245.553 133.794 245.02 133.852C243.457 134.023 243.616 133.394 243.702 139.045C243.743 141.719 243.791 143.923 243.809 143.944C243.827 143.964 244.701 143.863 245.749 143.718C246.798 143.574 248.219 143.403 248.906 143.338C249.594 143.274 250.508 143.177 250.938 143.123C251.367 143.069 252.539 142.929 253.542 142.813C254.544 142.696 255.763 142.555 256.25 142.498C258.547 142.229 261.704 141.966 261.933 142.023C262.112 142.068 262.188 142.159 262.188 142.329C262.188 142.62 261.827 142.75 260.573 142.911C260.115 142.97 259.177 143.093 258.49 143.184C257.802 143.276 256.935 143.389 256.563 143.436C255.774 143.536 253.788 143.812 252.813 143.957C252.44 144.013 251.948 144.083 251.719 144.112C251.49 144.141 250.294 144.306 249.063 144.478C247.831 144.649 246.401 144.835 245.886 144.889C244.765 145.008 243.096 145.227 240.625 145.582C239.623 145.725 237.724 145.98 236.406 146.147C235.089 146.314 233.636 146.502 233.177 146.564C232.719 146.626 231.992 146.72 231.563 146.773C231.133 146.825 230.453 146.915 230.052 146.973C229.651 147.03 228.971 147.123 228.542 147.18C226.998 147.384 226.182 147.498 225.208 147.647C224.664 147.731 223.563 147.872 222.761 147.961C221.958 148.05 220.974 148.167 220.573 148.222C218.278 148.538 215.423 148.904 212.77 149.223C211.113 149.422 209.449 149.636 209.072 149.698C208.694 149.761 207.964 149.849 207.448 149.895C206.932 149.94 206.018 150.05 205.417 150.139C204.815 150.228 203.573 150.4 202.656 150.521C201.74 150.642 200.568 150.808 200.052 150.89C199.177 151.03 197.724 151.201 196.511 151.307C196.224 151.332 195.848 151.376 195.675 151.406C195.131 151.498 192.773 151.767 192.492 151.769C191.832 151.774 191.869 150.742 192.537 150.53C192.839 150.434 193.972 150.268 197.24 149.843C197.927 149.753 199.38 149.563 200.469 149.42C201.557 149.278 202.987 149.091 203.646 149.006C204.305 148.921 205.172 148.806 205.573 148.752C205.974 148.697 206.689 148.604 207.162 148.545C207.634 148.486 208.408 148.389 208.88 148.33C210.121 148.175 211.251 148.024 211.641 147.961C211.754 147.944 211.866 147.925 211.979 147.907C211.979 146.328 211.979 144.749 211.979 143.169C211.979 138.813 211.965 138.425 211.803 138.363C211.706 138.326 210.733 138.421 209.641 138.575C208.55 138.729 207.188 138.903 206.615 138.963C206.042 139.024 205.503 139.093 205.417 139.117C205.244 139.165 201.294 139.724 199.896 139.898C199.409 139.958 198.659 140.053 198.229 140.108C197.8 140.163 197.026 140.255 196.511 140.313C195.601 140.415 195.136 140.478 193.386 140.732C192.927 140.799 192.065 140.907 191.47 140.974C190.282 141.105 190.361 141.051 189.998 142C189.832 142.437 189.629 142.719 189.235 143.065C188.135 144.03 188.11 144.058 188.171 144.253C188.256 144.52 188.432 146.882 188.435 147.788C188.438 148.53 188.444 148.549 188.776 148.745C190.005 149.47 190.361 149.964 190.512 151.152C190.599 151.84 190.775 159.694 190.747 161.636C190.73 162.777 190.425 163.357 189.531 163.945C189.154 164.193 189.02 164.219 188.11 164.219C187.299 164.219 187.066 164.184 186.904 164.036C186.793 163.936 186.656 163.854 186.599 163.854C186.438 163.854 186.091 163.435 185.822 162.917C185.593 162.475 185.577 162.315 185.541 160.156C185.505 158.005 185.489 157.85 185.285 157.63C185.166 157.501 185.019 157.396 184.959 157.396C184.857 157.396 181.32 155.903 180.136 155.36C179.838 155.224 179.345 155.032 179.042 154.934C178.738 154.836 178.396 154.697 178.281 154.625C178.056 154.484 175.707 153.607 174.271 153.128C173.784 152.965 172.706 152.587 171.875 152.288C171.044 151.989 170.154 151.675 169.896 151.591C169.638 151.507 169.216 151.355 168.958 151.253C168.701 151.151 168.226 150.988 167.905 150.889C167.322 150.71 167.317 150.71 166.557 150.985C164.697 151.656 161.649 152.19 159.7 152.186C157.756 152.183 155.088 151.712 153.174 151.034C152.068 150.642 152.433 150.571 149.063 151.826C147.716 152.327 145.982 152.962 145.208 153.237C142.826 154.085 142.127 154.349 141.707 154.561C141.484 154.673 141.185 154.8 141.042 154.843C140.769 154.925 138.517 155.86 137.708 156.227C137.451 156.344 136.841 156.611 136.354 156.82C134.76 157.504 134.474 157.641 134.361 157.777C134.291 157.862 134.244 158.729 134.234 160.128C134.216 162.598 134.165 162.813 133.421 163.497C132.707 164.153 132.529 164.219 131.458 164.219C130.508 164.219 130.449 164.205 129.973 163.874C129.649 163.65 129.378 163.342 129.192 162.989C128.914 162.462 128.906 162.398 128.877 160.469C128.861 159.38 128.912 156.732 128.99 154.583C129.121 150.973 129.149 150.645 129.352 150.25C129.586 149.795 130.034 149.372 130.709 148.97C130.848 148.887 130.987 148.804 131.126 148.721C131.162 148.387 131.198 148.053 131.234 147.72C131.519 145.064 131.573 144.173 131.46 143.962C131.398 143.845 131.311 143.75 131.267 143.75C131.223 143.75 130.897 143.561 130.542 143.331C129.846 142.878 129.463 142.303 129.342 141.524C129.308 141.301 129.258 141.098 129.232 141.072C129.126 140.966 128.174 140.807 125.886 140.513C124.568 140.344 123.044 140.137 122.5 140.053C121.394 139.884 119.003 139.558 117.5 139.372C116.486 139.247 111.943 138.609 110.729 138.421C109.068 138.163 108.068 138.05 108.007 138.111C107.911 138.208 107.796 147.636 107.89 147.771C107.933 147.834 108.414 147.944 108.958 148.015C109.503 148.086 110.276 148.188 110.677 148.242C111.078 148.296 111.969 148.41 112.656 148.496C113.344 148.581 114.563 148.741 115.365 148.849C116.167 148.958 117.268 149.1 117.813 149.165C118.357 149.23 119.06 149.325 119.375 149.374C119.69 149.424 120.417 149.518 120.99 149.582C121.563 149.647 122.336 149.742 122.708 149.793C123.081 149.845 123.784 149.937 124.271 149.999C126.406 150.269 127.331 150.424 127.463 150.533C127.634 150.675 127.648 151.183 127.489 151.479C127.38 151.683 127.317 151.691 126.326 151.623C125.75 151.583 124.478 151.435 123.499 151.295C122.52 151.154 121.367 150.992 120.938 150.935C120.508 150.879 119.887 150.784 119.558 150.724C118.807 150.589 117.463 150.426 116.511 150.355C116.11 150.325 115.336 150.231 114.792 150.146C114.248 150.061 113.38 149.95 112.865 149.899C112.349 149.849 110.685 149.64 109.167 149.436C105.566 148.953 105.026 148.882 103.906 148.746C103.391 148.683 102.688 148.59 102.344 148.54C102 148.489 101.332 148.398 100.859 148.338C99.9339 148.221 98.7176 148.064 97.5522 147.913C97.1512 147.86 96.073 147.722 95.1564 147.606C94.2397 147.489 93.1616 147.35 92.7605 147.295C92.3595 147.241 91.5862 147.144 91.0418 147.08C90.4974 147.017 89.9382 146.941 89.7989 146.913C89.4372 146.84 88.0299 146.671 86.8751 146.562C86.0314 146.483 82.6337 146.053 80.3126 145.731C79.9401 145.68 79.0497 145.564 78.3335 145.473C77.6172 145.381 76.3751 145.216 75.573 145.105C74.771 144.994 73.646 144.854 73.073 144.794C72.5001 144.735 71.6797 144.639 71.2501 144.581C70.8205 144.524 69.3907 144.335 68.073 144.162C66.7553 143.989 65.0322 143.755 64.2439 143.643C63.4557 143.531 62.2137 143.37 61.4835 143.286C58.8347 142.981 57.2574 142.697 57.1376 142.503C57.1053 142.451 57.1824 142.312 57.3091 142.194C57.568 141.953 57.9807 141.926 59.0626 142.08C60.246 142.248 62.5832 142.504 63.4153 142.556C63.8572 142.584 64.7578 142.673 65.4168 142.754C66.0757 142.836 67.3178 142.977 68.1772 143.069C69.0366 143.16 70.0914 143.278 70.521 143.331C70.9505 143.384 71.7945 143.477 72.396 143.537C74.307 143.73 75.3582 143.854 75.5847 143.915C75.7268 143.954 75.826 143.919 75.8649 143.818C75.8982 143.731 75.9341 141.478 75.9447 138.81C75.9591 135.263 75.932 133.921 75.8437 133.814C75.7728 133.729 75.4335 133.646 75.023 133.613C74.638 133.583 73.948 133.505 73.4897 133.442C73.0314 133.378 72.2814 133.283 71.823 133.229C71.3647 133.176 70.4974 133.061 69.896 132.973C68.4597 132.764 67.6093 132.648 66.0939 132.451C65.0243 132.312 61.2647 131.802 59.948 131.617C59.7189 131.585 59.2501 131.514 58.9064 131.46C58.5626 131.406 57.8595 131.312 57.3439 131.251C56.0251 131.095 54.8449 130.943 54.1147 130.835C53.771 130.785 53.0914 130.693 52.6043 130.633C51.7364 130.524 50.0941 130.292 48.7501 130.088C48.3778 130.032 47.698 129.947 47.2397 129.899C46.4224 129.815 43.9337 129.47 41.146 129.056C40.3724 128.941 39.388 128.798 38.9585 128.738C38.5289 128.678 37.9428 128.589 37.6564 128.542C37.3699 128.494 36.6903 128.401 36.146 128.336C35.6016 128.272 34.8985 128.175 34.5835 128.122C34.2685 128.069 33.7526 128.003 33.4376 127.975C33.1226 127.947 32.1851 127.825 31.3543 127.703C30.5235 127.582 29.4099 127.424 28.8793 127.353C28.1499 127.256 27.8774 127.175 27.7628 127.024C27.5978 126.806 27.5757 126.203 27.7114 125.625ZM145.267 140.927C145.18 140.84 144.896 137.656 144.896 136.767C144.896 136.248 144.85 135.927 144.766 135.86C144.627 135.751 144.361 135.714 141.927 135.468C141.068 135.381 140.06 135.266 139.688 135.214C139.315 135.161 138.495 135.065 137.865 135C136.714 134.882 135.208 134.703 131.25 134.213C130.076 134.068 128.341 133.859 127.396 133.749C126.451 133.638 125.279 133.498 124.792 133.437C123.397 133.261 122.316 133.133 121.302 133.024C120.787 132.969 119.662 132.826 118.802 132.706C117.101 132.469 116.359 132.381 114.057 132.139C113.224 132.051 112.005 131.907 111.349 131.818C110.693 131.729 109.781 131.616 109.323 131.565C106.497 131.256 105.369 131.131 104.583 131.039C104.097 130.981 103.299 130.888 102.813 130.832C102.326 130.776 101.177 130.634 100.261 130.518C97.3847 130.152 97.0589 130.113 95.9376 130.001C95.3362 129.94 94.5157 129.847 94.1147 129.793C93.7137 129.739 92.9168 129.645 92.3439 129.583C91.771 129.522 90.9505 129.426 90.521 129.37C90.0914 129.315 88.4505 129.13 86.8751 128.96C85.2997 128.79 83.5887 128.603 83.073 128.543C82.5574 128.484 81.4964 128.365 80.7149 128.279C79.9335 128.193 78.9257 128.075 78.4753 128.016C78.0249 127.957 77.2112 127.866 76.6668 127.814C76.1224 127.761 75.2787 127.667 74.7918 127.605C74.3049 127.543 73.6485 127.469 73.3335 127.442C72.6795 127.384 70.5332 127.132 69.3751 126.976C68.9455 126.918 67.5862 126.756 66.3543 126.616C65.1224 126.475 63.271 126.264 62.2397 126.146C61.2085 126.028 60.1068 125.887 59.7918 125.833C59.206 125.731 57.392 125.504 55.6251 125.31C55.0807 125.25 54.2137 125.154 53.698 125.095C53.1824 125.037 52.3855 124.947 51.9272 124.896C51.4689 124.845 50.3672 124.709 49.4793 124.593C48.5914 124.477 47.4897 124.333 47.0314 124.274C46.573 124.214 46.0574 124.141 45.8855 124.11C45.7137 124.08 45.3855 124.038 45.1564 124.018C44.6747 123.975 42.3699 123.691 41.3022 123.543C40.9012 123.487 40.1512 123.394 39.6355 123.335C37.4355 123.083 35.4595 122.83 32.3439 122.401C29.6678 122.032 29.7212 122.034 29.593 122.274C29.5303 122.391 29.4782 122.689 29.4772 122.936C29.4751 123.424 29.2547 124.706 29.0618 125.352C28.8918 125.922 29.0195 126.001 30.3126 126.133C32.371 126.341 38.8878 127.177 42.1876 127.655C43.5557 127.854 45.626 128.117 46.7189 128.232C47.6762 128.332 52.0576 128.941 52.2918 129.006C52.3776 129.03 52.7762 129.078 53.1772 129.112C53.5782 129.147 54.1974 129.221 54.5534 129.276C55.4718 129.42 58.0037 129.766 59.896 130.005C60.7839 130.118 62.0262 130.279 62.6564 130.362C63.2866 130.446 64.4116 130.589 65.1564 130.679C66.4078 130.831 69.1478 131.204 70.8855 131.459C71.2866 131.518 72.7164 131.705 74.0626 131.874C75.4089 132.044 76.6747 132.21 76.8751 132.242C77.0755 132.275 77.6616 132.344 78.1772 132.395C78.6928 132.447 79.7476 132.587 80.521 132.707C81.8572 132.915 83.628 133.152 86.4064 133.498C87.0939 133.583 88.6705 133.793 89.9103 133.963C91.1499 134.134 92.7439 134.346 93.452 134.434C94.1603 134.523 94.9976 134.638 95.3126 134.691C95.6276 134.745 96.3074 134.833 96.823 134.888C97.722 134.982 99.6305 135.238 101.902 135.568C103.629 135.819 106.112 136.157 107.344 136.309C107.974 136.387 109.216 136.547 110.104 136.666C110.992 136.784 112.094 136.926 112.552 136.982C113.011 137.038 114.065 137.176 114.896 137.289C115.727 137.402 117.321 137.615 118.438 137.762C119.555 137.91 121.078 138.12 121.823 138.229C122.568 138.338 123.81 138.504 124.583 138.598C125.357 138.692 126.271 138.809 126.615 138.857C126.958 138.905 127.615 138.995 128.073 139.056C128.531 139.118 129.05 139.194 129.225 139.227C129.5 139.279 129.616 139.218 130.087 138.776C131.016 137.904 132.265 137.687 133.622 138.162C134.008 138.298 135.143 138.808 136.146 139.298C140.184 141.269 140.168 141.263 142.24 141.565C143.139 141.697 144.29 141.808 144.844 141.816C145.257 141.823 145.261 141.82 145.292 141.403C145.308 141.171 145.298 140.957 145.267 140.927ZM106.791 138.311C106.754 137.86 106.934 137.914 104.427 137.6C103.511 137.485 102.479 137.347 102.136 137.294C101.792 137.241 101.136 137.148 100.677 137.089C100.219 137.029 99.1643 136.887 98.3335 136.774C95.0535 136.327 93.927 136.178 92.7605 136.037C92.2449 135.975 91.2372 135.833 90.521 135.723C88.1318 135.354 85.4799 134.992 84.4272 134.891C83.4055 134.794 78.6851 134.138 77.8647 133.98C77.0503 133.822 77.0845 133.738 77.0755 135.919C77.0712 136.989 77.0539 138.286 77.0374 138.802C77.021 139.318 76.9957 140.694 76.9814 141.861C76.9522 144.239 76.9278 144.162 77.7085 144.166C77.9664 144.167 78.6928 144.236 79.323 144.319C82.1324 144.689 82.9735 144.797 83.4747 144.849C84.5485 144.962 88.2041 145.424 89.2189 145.575C90.507 145.767 92.6889 146.041 93.3855 146.098C94.017 146.149 96.2993 146.411 97.8647 146.612C98.4949 146.693 99.9949 146.884 101.198 147.038C102.401 147.191 104.101 147.418 104.976 147.543C105.851 147.668 106.608 147.745 106.659 147.713C106.744 147.661 106.863 139.181 106.791 138.311ZM140.944 148.125C140.889 148.125 140.409 147.918 139.876 147.666C137.748 146.657 136.643 146.146 136.594 146.146C136.565 146.146 135.862 145.818 135.03 145.417C134.199 145.016 133.479 144.688 133.43 144.688C133.229 144.688 133.147 145.128 133.081 146.563C133.044 147.393 132.986 148.207 132.954 148.37C132.906 148.616 132.967 148.744 133.307 149.1C134.179 150.015 134.221 150.125 134.2 151.432C134.179 152.787 134.243 152.858 134.955 152.261C135.401 151.888 136.411 151.206 136.959 150.909C137.148 150.806 137.534 150.56 137.817 150.361C138.1 150.163 138.36 150 138.396 150C138.431 150 138.668 149.859 138.922 149.688C139.177 149.516 139.405 149.375 139.429 149.375C139.601 149.375 141.042 148.391 141.042 148.273C141.042 148.192 140.998 148.125 140.944 148.125ZM141.882 143.568C141.599 143.324 141.072 142.997 140.71 142.841C140.116 142.585 139.603 142.29 138.854 141.774C138.229 141.343 137.604 141.12 137.604 141.328C137.605 141.46 140.13 143.102 140.761 143.381C141.087 143.525 141.541 143.761 141.769 143.905C142.552 144.399 142.618 144.202 141.882 143.568ZM150.182 149.489C149.572 149.148 148.761 148.576 148.578 148.36C148.453 148.211 148.458 148.208 146.724 149.375C146.383 149.604 145.985 149.906 145.839 150.046C145.693 150.185 145.268 150.511 144.896 150.769C143.152 151.98 142.367 152.5 142.281 152.5C142.126 152.5 142.176 152.682 142.351 152.749C142.44 152.783 142.652 152.739 142.823 152.651C142.993 152.563 143.447 152.395 143.832 152.277C144.217 152.16 144.672 152.001 144.844 151.924C145.212 151.759 148.357 150.738 149.479 150.418C150.952 149.998 150.993 149.944 150.182 149.489ZM146.004 144.297C145.876 143.996 145.723 143.702 145.663 143.643C145.568 143.548 143.007 143.021 142.64 143.021C142.361 143.021 142.52 143.289 143 143.625C144.666 144.795 145.956 145.537 146.09 145.403C146.241 145.252 146.203 144.765 146.004 144.297ZM148.542 122.188C148.459 122.389 148.344 122.589 148.233 122.76C148.017 123.094 147.473 124.186 147.351 124.531C147.12 125.185 146.799 127.664 146.722 129.39C146.704 129.801 146.685 130.213 146.667 130.625C146.746 130.878 146.808 130.927 146.855 130.898C146.903 130.868 147.208 130.42 147.533 129.901C147.731 129.587 147.928 129.273 148.125 128.958C148.334 128.699 148.543 128.439 148.752 128.179C148.961 127.919 149.17 127.659 149.378 127.399C149.343 125.523 149.307 123.647 149.271 121.771C149.165 121.584 149.049 121.642 148.893 121.812C148.811 121.903 148.728 121.993 148.646 122.083C148.611 122.118 148.577 122.153 148.542 122.188ZM172.755 135.469C172.206 132.51 170.403 129.483 168.076 127.614C166.889 126.661 166.581 126.482 164.636 125.612C164.406 125.51 163.727 125.299 163.125 125.144C162.135 124.89 161.844 124.863 160.052 124.854C157.356 124.84 156.078 125.098 154.11 126.051C151.236 127.442 149.252 129.575 147.928 132.696C147.498 133.709 147.23 134.808 147.092 136.124C146.89 138.043 146.963 139.21 147.417 141.354C147.659 142.496 148.294 143.958 148.549 143.958C148.641 143.958 148.971 143.776 149.283 143.553C149.594 143.329 150.083 143.019 150.368 142.862C150.652 142.705 150.956 142.518 151.042 142.447C151.128 142.375 151.397 142.216 151.641 142.093C152.096 141.865 152.155 141.781 151.986 141.609C151.809 141.431 151.125 139.755 150.925 139.01C150.628 137.912 150.557 135.899 150.773 134.756C151.127 132.892 151.92 131.34 153.177 130.056C155.37 127.814 157.884 126.862 160.994 127.094C162.888 127.235 165.111 128.341 166.585 129.877C168.061 131.414 168.807 132.914 169.116 134.97C169.416 136.969 168.915 139.636 167.952 141.17C167.818 141.384 167.711 141.618 167.713 141.691C167.716 141.763 168.35 142.128 169.122 142.5C169.894 142.873 170.65 143.306 170.803 143.464C170.956 143.621 171.159 143.75 171.255 143.75C171.605 143.75 172.266 142.173 172.671 140.371C172.907 139.322 172.955 136.543 172.755 135.469ZM159.345 110.151C159.215 109.919 157.793 110.149 156.388 110.63C155.743 110.851 154.345 111.62 153.767 112.072C152.095 113.38 150.606 115.21 149.611 117.18C148.975 118.439 148.454 119.843 148.577 119.966C148.64 120.029 148.826 119.92 149.963 119.155C150.592 118.732 151.518 118.201 151.667 118.179C151.696 118.174 152.047 118.046 152.448 117.893C154.213 117.222 156.143 116.795 158.333 116.593C158.629 116.565 158.924 116.538 159.219 116.51C159.243 116.146 159.267 115.781 159.29 115.417C159.401 113.721 159.437 110.314 159.345 110.151ZM156.771 123.333C156.882 118.769 156.867 118.324 156.749 118.279C156.588 118.217 154.757 118.56 153.865 118.818C153.019 119.064 150.829 120.155 150.337 120.576C150.196 120.696 150.056 120.817 149.915 120.937C149.912 121.285 149.909 121.632 149.906 121.979C149.902 122.326 149.899 122.674 149.896 123.021C149.861 123.021 149.827 123.021 149.792 123.021C149.827 123.09 149.861 123.16 149.896 123.229C149.896 124.271 149.896 125.313 149.896 126.354C149.931 126.389 149.965 126.424 150 126.458C150.104 126.493 150.208 126.528 150.313 126.563C150.452 126.424 150.59 126.285 150.729 126.146C150.799 126.076 150.868 126.007 150.938 125.938C150.981 125.94 151.024 125.942 151.068 125.944C151.139 125.948 151.303 125.831 151.667 125.417C151.736 125.347 151.806 125.278 151.875 125.208C151.875 125.234 151.875 125.26 151.875 125.286C151.875 125.388 151.747 125.442 153.229 124.719C153.96 124.363 154.988 123.961 155.573 123.803C156.146 123.648 156.65 123.478 156.771 123.333ZM168.359 146.089C167.516 145.587 166.759 145.091 165.667 144.323C165.561 144.248 165.408 144.284 165.129 144.449C162.585 145.956 160.299 146.413 157.962 145.884C156.424 145.536 155.345 145.093 154.618 144.513C154.379 144.323 154.135 144.167 154.074 144.167C154.014 144.167 153.764 144.304 153.519 144.472C153.273 144.64 152.452 145.178 151.693 145.669C150.934 146.159 150.313 146.622 150.313 146.696C150.313 147.006 151.833 148.055 153.333 148.778C155.461 149.803 159.339 150.344 161.823 149.962C163.557 149.696 165.01 149.326 165.99 148.902C166.868 148.523 167.292 148.314 167.823 148C168.956 147.333 169.368 147.029 169.371 146.862C169.374 146.756 168.992 146.464 168.359 146.089ZM155.697 136.164C155.564 136.039 155.412 135.938 155.358 135.938C155.305 135.938 154.76 135.744 154.146 135.508C152.873 135.018 152.585 135.023 152.406 135.536C152.278 135.903 152.258 136.574 152.358 137.077C152.464 137.606 152.712 137.691 153.88 137.598C155.319 137.483 155.504 137.428 155.736 137.047C155.998 136.619 155.99 136.439 155.697 136.164ZM155.973 138.8C155.858 138.685 155.711 138.649 155.531 138.691C155.382 138.726 155.073 138.78 154.844 138.813C154.45 138.868 154.067 138.976 153.594 139.168C153.479 139.214 153.297 139.28 153.19 139.315C153.031 139.367 153.006 139.447 153.054 139.745C153.114 140.115 153.679 140.938 153.873 140.938C154.047 140.938 155.659 140.085 155.912 139.86C156.194 139.609 156.226 139.053 155.973 138.8ZM156.218 133.064C155.863 132.543 155.469 131.988 155.343 131.831C155.216 131.674 155.084 131.455 155.049 131.345C154.946 131.019 154.742 131.112 154.144 131.758C153.577 132.37 153.07 133.254 153.16 133.476C153.186 133.541 153.911 133.891 154.771 134.254C156.303 134.901 156.34 134.91 156.605 134.737C157.02 134.464 156.942 134.126 156.218 133.064ZM158.957 141.893C158.649 141.623 157.953 141.359 157.54 141.356C157.419 141.355 157.138 141.493 156.915 141.662C156.693 141.832 156.337 142.101 156.125 142.261C155.913 142.421 155.737 142.631 155.734 142.727C155.728 142.948 156.472 143.455 157.143 143.686C157.425 143.784 157.944 143.891 158.296 143.925C159.063 143.999 159.107 143.949 159.202 142.879C159.264 142.183 159.257 142.156 158.957 141.893ZM159.109 129.193C158.887 128.89 157.395 129.255 156.589 129.81C156.345 129.977 156.146 130.153 156.146 130.201C156.146 130.249 156.327 130.564 156.549 130.9C156.771 131.236 157.105 131.792 157.292 132.135C157.478 132.479 157.695 132.835 157.774 132.925C157.853 133.015 157.917 133.136 157.917 133.193C157.917 133.25 158.028 133.401 158.164 133.529C158.437 133.785 158.841 133.756 159.084 133.463C159.262 133.249 159.283 129.432 159.109 129.193ZM162.23 136.777C162.15 136.522 161.932 136.153 161.746 135.956C161.344 135.534 160.446 135.104 159.964 135.104C158.799 135.104 157.512 136.165 157.335 137.27C157.299 137.493 157.327 137.953 157.397 138.291C157.505 138.815 157.603 138.986 158.059 139.442C158.628 140.013 159.095 140.208 159.929 140.225C160.432 140.235 161.268 139.908 161.65 139.552C162.327 138.921 162.557 137.82 162.23 136.777ZM159.167 123.125C160.579 123.13 161.247 123.151 161.563 123.175C161.754 123.189 161.944 123.203 162.136 123.218C162.146 122.392 162.156 121.566 162.167 120.74C162.193 118.642 162.174 118.243 162.042 118.134C161.812 117.944 158.016 118.016 157.776 118.216C157.627 118.34 157.604 118.635 157.604 120.481C157.604 121.189 157.604 121.897 157.604 122.604C157.569 122.604 157.535 122.604 157.5 122.604C157.5 122.709 157.5 122.815 157.5 122.92C157.5 123.094 157.559 123.256 157.63 123.281C157.702 123.306 158.276 123.288 158.906 123.241C159.537 123.194 159.853 123.148 159.167 123.125ZM160.519 102.708C160.441 99.9717 160.381 99.5231 160.066 99.3308C159.919 99.2411 159.843 99.2677 159.681 99.4646C159.503 99.6821 159.478 99.8879 159.472 101.235C159.467 102.074 159.449 102.854 159.431 102.969C159.412 103.083 159.368 104.379 159.333 105.848C159.262 108.799 159.229 108.648 159.931 108.644C160.555 108.641 160.572 108.596 160.584 106.905C160.591 106.058 160.561 104.169 160.519 102.708ZM163.72 142.682C163.651 142.595 163.296 142.307 162.931 142.043C162.212 141.521 161.932 141.466 161.084 141.68C160.452 141.839 160.277 142.178 160.331 143.139C160.353 143.53 160.428 143.907 160.497 143.976C160.711 144.19 162.702 143.731 163.133 143.368C163.224 143.291 163.374 143.229 163.468 143.229C163.717 143.229 163.877 142.88 163.72 142.682ZM163.52 129.993C163.11 129.615 162.51 129.335 161.778 129.178C160.954 129.001 160.651 129.028 160.51 129.291C160.36 129.572 160.439 132.986 160.603 133.29C160.662 133.4 160.912 133.552 161.158 133.627C161.714 133.798 161.625 133.894 162.953 131.676C163.23 131.213 163.499 130.807 163.551 130.775C163.603 130.744 163.694 130.626 163.754 130.513C163.845 130.343 163.806 130.256 163.52 129.993ZM171.152 119.271C170.775 118.056 169.645 115.996 168.58 114.582C168.151 114.013 166.462 112.351 165.852 111.898C164.462 110.866 160.764 109.617 160.575 110.116C160.544 110.195 160.555 111.667 160.598 113.385C160.625 114.427 160.651 115.469 160.677 116.51C161.127 116.551 161.577 116.591 162.027 116.631C164.258 116.83 166.345 117.289 168.021 117.948C168.91 118.297 170.444 119.271 170.82 119.724C171.148 120.119 171.335 119.863 171.152 119.271ZM169.704 120.745C169.221 120.263 167.679 119.385 166.646 119.004C166.241 118.855 165.417 118.631 164.191 118.336C163.485 118.166 162.939 118.198 162.882 118.411C162.781 118.785 162.833 123.178 162.94 123.307C162.998 123.379 163.128 123.438 163.228 123.438C163.451 123.438 165.136 123.988 165.989 124.339C167.25 124.858 167.922 125.253 168.933 126.068C169.342 126.397 169.726 126.667 169.786 126.667C169.861 126.667 169.896 125.739 169.896 123.802C169.896 121.156 169.881 120.923 169.704 120.745ZM166.462 132.76C166.038 132.035 165.286 131.315 165.037 131.396C164.882 131.446 163.931 132.732 163.384 133.629C163.326 133.724 163.193 133.929 163.089 134.084C162.981 134.244 162.927 134.45 162.962 134.562C163.03 134.776 163.432 135 163.748 135C164.099 135 166.771 133.626 166.769 133.446C166.767 133.355 166.629 133.047 166.462 132.76ZM166.641 139.3C166.396 139.11 164.672 138.634 164.344 138.666C163.977 138.702 163.542 139.231 163.542 139.643C163.542 139.868 163.785 140.027 164.792 140.462C165.031 140.565 165.376 140.774 165.564 140.93C165.708 141.05 165.765 141.042 165.948 140.876C166.066 140.77 166.252 140.485 166.362 140.243C166.472 140.002 166.609 139.775 166.667 139.74C166.811 139.651 166.797 139.421 166.641 139.3ZM167.397 135.651C167.284 135.465 167.122 135.313 167.038 135.313C166.816 135.313 164.8 136.108 164.401 136.352C164.014 136.589 163.955 136.935 164.245 137.272C164.404 137.457 164.599 137.493 165.786 137.555C167.302 137.633 167.274 137.644 167.482 136.915C167.653 136.315 167.635 136.041 167.397 135.651ZM176.016 151.625C175.371 151.186 174.563 150.619 174.219 150.368C173.875 150.115 173.289 149.694 172.917 149.431C172.544 149.167 172.057 148.813 171.834 148.643C171.61 148.473 171.391 148.333 171.347 148.333C171.302 148.333 171.063 148.495 170.816 148.691C170.568 148.888 170.072 149.226 169.714 149.442C169.004 149.87 168.906 150.065 169.349 150.164C170.867 150.5 174.108 151.537 175.831 152.239C176.466 152.497 177.031 152.708 177.086 152.708C177.421 152.708 177.042 152.326 176.016 151.625ZM173.118 127.396C172.951 125.67 172.706 124.526 172.315 123.646C172 122.936 170.987 121.563 170.779 121.563C170.647 121.563 170.625 121.965 170.625 124.382C170.625 126.231 170.664 127.275 170.739 127.415C170.802 127.533 171.072 127.907 171.338 128.246C171.886 128.944 172.519 129.886 172.781 130.393C172.878 130.58 173.007 130.717 173.067 130.696C173.205 130.651 173.236 128.617 173.118 127.396ZM177.687 142.5C177.608 142.5 177.264 142.576 176.923 142.67C176.582 142.763 176.021 142.903 175.677 142.98C173.794 143.403 173.989 143.299 173.753 143.999C173.507 144.726 173.492 144.934 173.674 145.084C173.771 145.165 174.001 145.063 174.549 144.696C175.736 143.903 176.02 143.726 176.909 143.229C177.701 142.786 178.007 142.5 177.687 142.5ZM293.18 125.194C293.153 125.167 293.085 124.772 293.029 124.317C292.856 122.907 292.706 122.039 292.622 121.955C292.578 121.911 291.583 122.017 290.412 122.19C288.469 122.478 284.776 122.941 283.49 123.058C281.967 123.197 281.387 123.262 280.104 123.438C279.331 123.544 278.229 123.682 277.656 123.746C277.083 123.81 275.958 123.953 275.156 124.065C274.354 124.176 273.276 124.316 272.761 124.374C272.245 124.433 271.401 124.529 270.886 124.587C269.611 124.731 268.377 124.878 267.813 124.951C267.555 124.985 266.922 125.054 266.406 125.106C265.891 125.157 265.375 125.221 265.261 125.249C265.146 125.276 264.537 125.353 263.906 125.419C263.276 125.485 262.292 125.604 261.719 125.683C261.146 125.762 259.857 125.925 258.854 126.045C257.852 126.164 256.656 126.308 256.198 126.363C255.74 126.418 254.919 126.508 254.375 126.561C253.831 126.615 253.081 126.707 252.708 126.766C252.336 126.824 251.774 126.897 251.458 126.928C251.143 126.959 250.581 127.031 250.208 127.088C249.836 127.144 248.922 127.262 248.177 127.349C247.432 127.436 246.448 127.554 245.99 127.61C245.005 127.732 241.593 128.098 240.261 128.224C239.745 128.273 237.612 128.527 235.521 128.789C233.43 129.05 231.273 129.315 230.729 129.376C229.016 129.571 227.994 129.691 227.188 129.791C226.758 129.844 225.492 129.986 224.375 130.105C223.258 130.225 221.852 130.391 221.25 130.473C217.595 130.976 215.664 131.205 213.452 131.398C212.339 131.495 209.491 131.841 207.793 132.087C207.409 132.142 206.88 132.188 206.616 132.188C206.353 132.188 205.799 132.257 205.386 132.343C204.973 132.428 204.167 132.54 203.594 132.592C203.021 132.644 201.451 132.808 200.104 132.956C195.525 133.461 193.804 133.648 192.708 133.761C192.107 133.823 190.958 133.96 190.156 134.064C187.559 134.403 183.821 134.829 182.396 134.948C181.966 134.984 180.81 135.126 179.827 135.264C178.843 135.401 177.39 135.57 176.598 135.638C175.805 135.705 175.098 135.806 175.027 135.861C174.937 135.931 174.917 136.13 174.961 136.51C175.038 137.161 174.834 139.911 174.639 140.848C174.457 141.726 174.545 141.897 175.134 141.814C175.376 141.78 175.714 141.712 175.886 141.663C176.345 141.531 178.593 141.146 178.901 141.146C179.336 141.146 180.377 140.742 181.979 139.954C185.091 138.421 186.123 138.02 187.144 137.948C188.238 137.87 188.899 138.075 189.421 138.652C189.625 138.878 189.792 139.108 189.792 139.163C189.792 139.379 190.199 139.484 190.648 139.385C190.893 139.33 191.656 139.214 192.344 139.125C196.494 138.59 200.468 138.086 201.875 137.915C204.025 137.654 210.262 136.854 218.594 135.77C219.224 135.688 220.142 135.553 220.633 135.47C221.125 135.387 222.156 135.244 222.925 135.154C226.01 134.789 225.643 134.837 230.886 134.124C235.525 133.493 235.909 133.443 236.511 133.39C236.797 133.365 237.875 133.227 238.906 133.084C239.938 132.94 241.672 132.703 242.761 132.557C245.466 132.195 246.828 132.01 248.177 131.822C248.807 131.735 249.698 131.617 250.156 131.561C250.615 131.505 251.318 131.414 251.719 131.358C252.12 131.302 252.8 131.21 253.229 131.153C253.659 131.095 254.386 130.996 254.844 130.932C255.302 130.868 256.005 130.778 256.406 130.73C256.807 130.683 257.932 130.526 258.906 130.38C259.88 130.235 261.287 130.039 262.031 129.943C262.776 129.848 265.664 129.447 268.45 129.053C271.235 128.66 273.86 128.31 274.283 128.277C274.706 128.244 275.357 128.175 275.729 128.125C276.102 128.074 276.805 127.98 277.292 127.916C277.779 127.851 278.599 127.734 279.115 127.654C279.63 127.575 280.662 127.437 281.406 127.347C282.151 127.258 283.44 127.093 284.271 126.981C285.102 126.87 286.063 126.757 286.406 126.73C286.75 126.704 287.5 126.612 288.073 126.527C288.646 126.442 289.982 126.266 291.042 126.137C292.102 126.008 293.027 125.858 293.099 125.803C293.225 125.707 293.28 125.294 293.18 125.194ZM186.696 144.922C186.652 144.57 186.502 144.501 186.171 144.682C185.885 144.837 183.161 146.042 183.095 146.042C183.063 146.042 182.693 146.2 182.273 146.393C181.474 146.761 180.614 147.141 180.261 147.282C180.146 147.328 179.828 147.466 179.555 147.589C179.281 147.712 178.97 147.813 178.864 147.813C178.758 147.813 178.615 147.881 178.546 147.964C178.419 148.116 178.477 148.333 178.643 148.333C178.692 148.333 179.076 148.556 179.497 148.828C179.917 149.1 180.354 149.379 180.469 149.448C180.583 149.517 181.413 150.017 182.312 150.559C183.211 151.101 184.052 151.578 184.181 151.619C184.31 151.66 184.635 151.828 184.902 151.993C185.169 152.157 185.412 152.292 185.442 152.292C185.472 152.292 185.516 151.858 185.539 151.328C185.587 150.273 185.809 149.737 186.455 149.118C186.56 149.017 186.666 148.916 186.771 148.815C186.765 148.223 186.76 147.63 186.754 147.038C186.745 146.06 186.719 145.108 186.696 144.922ZM242.688 139.072C242.647 136.47 242.576 134.306 242.53 134.263C242.485 134.219 242.05 134.247 241.563 134.324C241.076 134.402 239.857 134.563 238.854 134.684C237.852 134.804 236.586 134.97 236.042 135.053C235.498 135.135 234.49 135.274 233.802 135.362C233.115 135.45 231.943 135.614 231.198 135.727C229.675 135.959 225.874 136.468 223.75 136.725C221.812 136.96 221.253 137.035 219.219 137.338C218.245 137.483 216.489 137.719 215.317 137.864C214.146 138.008 213.146 138.167 213.096 138.217C213.046 138.267 213.01 140.388 213.017 142.93C213.027 146.745 213.054 147.578 213.175 147.698C213.298 147.822 213.472 147.824 214.291 147.714C216.813 147.376 218.299 147.175 219.688 146.984C220.518 146.87 221.69 146.726 222.292 146.664C222.893 146.603 224.065 146.461 224.896 146.351C225.727 146.241 226.969 146.08 227.656 145.995C228.344 145.91 229.773 145.72 230.833 145.573C233.754 145.167 234.848 145.026 237.292 144.74C239.342 144.5 241.432 144.234 242.255 144.107C242.436 144.08 242.624 144 242.674 143.93C242.724 143.858 242.731 141.714 242.688 139.072ZM243.099 134.187C242.928 134.154 242.917 134.364 242.917 137.44C242.917 139.553 242.954 140.729 243.02 140.729C243.086 140.729 243.126 139.964 243.128 138.672C243.13 137.54 243.164 136.427 243.202 136.198C243.241 135.969 243.275 135.43 243.277 135.002C243.281 134.34 243.254 134.217 243.099 134.187Z" fill="white"/>
<path d="M243.099 134.187C243.254 134.217 243.281 134.34 243.277 135.002C243.275 135.43 243.241 135.969 243.202 136.198C243.164 136.427 243.13 137.54 243.128 138.672C243.126 139.964 243.086 140.729 243.02 140.729C242.954 140.729 242.917 139.553 242.917 137.44C242.917 134.364 242.929 134.154 243.099 134.187Z" fill="white"/>
<path d="M148.125 128.958C148.858 127.834 149.111 127.482 149.161 127.452C149.21 127.421 149.255 126.131 149.261 124.584C149.264 123.646 149.268 122.708 149.271 121.771C149.307 123.647 149.343 125.523 149.378 127.399C149.17 127.659 148.961 127.919 148.752 128.179C148.543 128.439 148.334 128.699 148.125 128.958Z" fill="white"/>
<path d="M151.875 125.208C153.856 124.218 154.466 123.972 156.016 123.543C156.267 123.473 156.519 123.403 156.771 123.333C156.65 123.478 156.146 123.648 155.573 123.803C154.988 123.961 153.96 124.363 153.229 124.719C151.746 125.442 151.875 125.388 151.875 125.286C151.875 125.26 151.875 125.234 151.875 125.208Z" fill="white"/>
<path d="M157.604 122.604C157.636 122.809 157.669 123.013 157.701 123.218C157.945 123.202 158.189 123.187 158.434 123.171C158.678 123.156 158.922 123.14 159.167 123.125C159.853 123.148 159.537 123.194 158.906 123.241C158.276 123.288 157.702 123.306 157.63 123.281C157.559 123.256 157.5 123.094 157.5 122.92C157.5 122.815 157.5 122.709 157.5 122.604C157.535 122.604 157.569 122.604 157.604 122.604Z" fill="white"/>
<path d="M150.938 125.938C151.181 125.764 151.424 125.59 151.667 125.417C151.303 125.831 151.139 125.948 151.068 125.944C151.024 125.942 150.981 125.94 150.938 125.938Z" fill="white"/>
<path d="M149.896 123.021C149.896 123.09 149.896 123.16 149.896 123.229C149.861 123.16 149.827 123.09 149.792 123.021C149.827 123.021 149.861 123.021 149.896 123.021Z" fill="white"/>
<path d="M39.6874 23.75C39.6874 23.7154 39.6874 23.6804 39.6874 23.6459C39.4924 23.3594 39.2972 23.0729 39.1022 22.7865C38.9074 22.5 38.7122 22.2136 38.517 21.9271C50.4074 21.9184 62.2978 21.9096 74.188 21.9009C86.0784 21.8921 97.9688 21.8834 109.859 21.8748C109.929 21.9529 110 22.0311 110.07 22.1092C110.186 22.2382 110.602 22.8125 110.994 23.3854C111.387 23.9584 112.346 25.3413 113.125 26.4584C115.621 30.0373 117.11 32.1815 118.802 34.6354C119.711 35.9531 121.251 38.1796 122.224 39.5834C123.198 40.9871 124.547 42.9404 125.222 43.9244C125.897 44.9082 126.698 46.0673 127.001 46.4998C127.304 46.9323 127.9 47.7915 128.325 48.409C128.751 49.0263 129.832 50.5859 130.728 51.875C131.625 53.1642 133.441 55.7892 134.764 57.7084C136.087 59.6275 137.381 61.5025 137.639 61.875C138.417 62.9969 141.329 67.2179 142.557 69.0034C143.191 69.924 143.97 71.0521 144.29 71.5104C144.61 71.9688 145.389 73.0938 146.022 74.0104C149.139 78.5296 149.806 79.4727 150.625 80.5209C150.625 80.625 150.625 80.7292 150.625 80.8334C150.625 80.8679 150.625 80.9029 150.625 80.9375C150.556 81.0417 150.486 81.1459 150.417 81.25C150.347 81.3196 150.278 81.3888 150.208 81.4584C150.208 81.4929 150.208 81.5279 150.208 81.5625C150.069 81.7363 149.931 81.9096 149.792 82.0834C149.792 82.1179 149.792 82.1529 149.792 82.1875C149.479 82.6042 149.167 83.0209 148.854 83.4375C148.854 83.4721 148.854 83.5071 148.854 83.5417C148.7 83.7429 148.546 83.9442 148.392 84.1454C148.138 84.4775 147.928 84.8057 147.917 85C147.882 85.0346 147.847 85.0696 147.812 85.1042C147.708 85.2084 147.604 85.3125 147.5 85.4167C147.5 85.4513 147.5 85.4863 147.5 85.5209C147.409 85.6269 147.318 85.7327 147.228 85.8388C147.078 86.0138 146.984 86.1779 147.083 86.25C147.048 86.2846 147.014 86.3196 146.979 86.3542C146.977 86.3282 146.974 86.3021 146.972 86.2761C146.968 86.2332 146.664 86.655 145.625 88.2292C145.59 88.2988 145.556 88.3679 145.521 88.4375C145.278 88.7846 145.035 89.1321 144.792 89.4792C144.722 89.5834 144.653 89.6875 144.583 89.7917C144.524 89.8429 144.466 89.8942 144.407 89.9454C144.31 90.03 144.263 90.1238 144.375 90.2084C144.306 90.2779 144.236 90.3471 144.167 90.4167C144.132 90.4513 144.097 90.4863 144.062 90.5209C143.958 90.6946 143.854 90.8679 143.75 91.0417C143.731 91.0417 143.713 91.0417 143.694 91.0417C143.664 91.0417 143.593 91.1588 143.437 91.5625C143.403 91.5971 143.368 91.6321 143.333 91.6667C143.229 91.7709 143.125 91.875 143.021 91.9792C143.021 92.0138 143.021 92.0488 143.021 92.0834C142.986 92.1179 142.951 92.1529 142.917 92.1875C142.882 92.2571 142.847 92.3263 142.812 92.3959C142.743 92.4654 142.673 92.5346 142.604 92.6042C142.604 92.6388 142.604 92.6738 142.604 92.7084C142.535 92.8125 142.465 92.9167 142.396 93.0209C142.361 93.0554 142.326 93.0904 142.292 93.125C142.222 93.1946 142.153 93.2638 142.083 93.3334C142.014 93.4721 141.944 93.6113 141.875 93.75C141.771 93.8542 141.667 93.9584 141.562 94.0625C141.562 94.0971 141.562 94.1321 141.562 94.1667C141.528 94.2013 141.493 94.2363 141.458 94.2709C141.423 94.3404 141.389 94.4096 141.354 94.4792C141.25 94.6179 141.146 94.7571 141.042 94.8959C141.007 94.9654 140.972 95.0346 140.937 95.1042C140.833 95.2429 140.729 95.3821 140.625 95.5209C140.556 95.625 140.486 95.7292 140.417 95.8334C140.347 95.9029 140.278 95.9721 140.208 96.0417C140.173 96.1459 140.139 96.25 140.104 96.3542C140.035 96.4238 139.965 96.4929 139.896 96.5625C139.861 96.6321 139.826 96.7013 139.792 96.7709C139.757 96.8054 139.722 96.8404 139.687 96.875C139.653 96.9446 139.618 97.0138 139.583 97.0834C139.514 97.1529 139.444 97.2221 139.375 97.2917C139.375 97.3263 139.375 97.3613 139.375 97.3959C139.306 97.4654 139.236 97.5346 139.167 97.6042C139.167 97.6388 139.167 97.6738 139.167 97.7084C139.097 97.7779 139.028 97.8471 138.958 97.9167C138.889 98.0554 138.819 98.1946 138.75 98.3334C138.646 98.4375 138.542 98.5417 138.437 98.6459C138.437 98.6804 138.437 98.7154 138.437 98.75C138.298 98.9238 138.16 99.0971 138.021 99.2709C137.791 99.7552 137.697 99.8959 137.664 99.8959C137.644 99.8959 137.624 99.8959 137.604 99.8959C137.563 99.919 137.522 99.9423 137.482 99.9654C137.413 100.005 137.23 99.8906 136.771 99.375C136.771 99.3404 136.771 99.3054 136.771 99.2709C136.632 99.1321 136.493 98.9929 136.354 98.8542C136.319 98.8196 136.285 98.7846 136.25 98.75C136.276 98.749 136.302 98.7481 136.328 98.7471C136.371 98.7454 136.066 98.2767 134.896 96.6667C134.896 96.6321 134.896 96.5971 134.896 96.5625C134.769 96.3802 134.642 96.1979 134.515 96.0156C134.306 95.7148 134.119 95.4804 134.062 95.5209C134.028 95.4863 133.993 95.4513 133.958 95.4167C133.984 95.4154 134.01 95.4142 134.036 95.4127C134.079 95.4106 133.986 95.2465 133.542 94.6875C133.542 94.6529 133.542 94.6179 133.542 94.5834C133.368 94.375 133.194 94.1667 133.021 93.9584C133.021 93.9238 133.021 93.8888 133.021 93.8542C132.847 93.6459 132.673 93.4375 132.5 93.2292C132.5 93.1946 132.5 93.1596 132.5 93.125C131.904 92.2657 131.308 91.4063 130.713 90.5469C129.73 89.129 128.909 87.9804 128.854 88.0209C128.819 87.9863 128.785 87.9513 128.75 87.9167C128.776 87.9154 128.802 87.9142 128.828 87.9127C128.971 87.9056 126.748 84.7404 126.562 84.6875C126.528 84.6529 126.493 84.6179 126.458 84.5834C126.484 84.5827 126.51 84.5819 126.536 84.5813C126.579 84.5798 126.385 84.2636 126.104 83.8781C125.823 83.4925 125.577 83.1888 125.521 83.2292C125.486 83.1946 125.451 83.1596 125.417 83.125C125.443 83.124 125.469 83.1229 125.495 83.1219C125.538 83.1202 125.022 82.3467 123.125 79.6875C123.125 79.6529 123.125 79.6179 123.125 79.5834C122.812 79.1667 122.5 78.75 122.187 78.3334C122.187 78.2988 122.187 78.2638 122.187 78.2292C122.014 78.0209 121.84 77.8125 121.667 77.6042C121.667 77.5696 121.667 77.5346 121.667 77.5C121.474 77.2136 121.282 76.9271 121.09 76.6407C120.773 76.1679 120.444 75.7227 120.208 75.5209C120.139 75.4167 120.069 75.3125 120 75.2084C119.754 74.8232 119.509 74.4375 119.264 74.0523C118.858 73.4165 118.507 72.9244 118.437 73.0209C118.403 72.9863 118.368 72.9513 118.333 72.9167C118.359 72.9157 118.385 72.9146 118.411 72.9134C118.555 72.9071 113.414 65.5736 113.229 65.5209C113.194 65.4863 113.16 65.4513 113.125 65.4167C113.151 65.4157 113.177 65.4148 113.203 65.414C113.344 65.4092 111.119 62.2411 110.937 62.1875C110.903 62.1529 110.868 62.1179 110.833 62.0834C110.859 62.0829 110.885 62.0823 110.911 62.0819C110.954 62.0811 110.65 61.6123 109.479 60C109.479 59.9654 109.479 59.9304 109.479 59.8959C109.167 59.4792 108.854 59.0625 108.542 58.6459C108.542 58.6113 108.542 58.5763 108.542 58.5417C108.403 58.3679 108.264 58.1946 108.125 58.0209C108.125 57.9863 108.125 57.9513 108.125 57.9167C107.812 57.5 107.5 57.0834 107.187 56.6667C107.187 56.6321 107.187 56.5971 107.187 56.5625C107.014 56.3542 106.84 56.1459 106.667 55.9375C106.667 55.9029 106.667 55.8679 106.667 55.8334C106.253 55.2215 105.839 54.6098 105.425 53.9979C104.742 52.9884 104.133 52.1211 103.958 51.9792C103.958 51.9444 103.958 51.9098 103.958 51.875C103.819 51.7015 103.68 51.5277 103.542 51.3542C103.542 51.3194 103.542 51.2848 103.542 51.25C103.368 51.0417 103.194 50.8334 103.021 50.625C103.021 50.5902 103.021 50.5557 103.021 50.5209C102.63 49.9554 102.239 49.3898 101.849 48.8242C101.204 47.8911 99.9557 46.0863 99.0738 44.8138C98.5395 44.0425 98.0053 43.2713 97.4709 42.5C90.0495 42.5 82.628 42.5 75.2066 42.5C55.5372 42.5 52.9284 42.4817 52.7082 42.1875C52.6388 42.1181 52.5693 42.0486 52.4999 41.9792C52.4651 41.9098 52.4305 41.8402 52.3957 41.7709C52.1649 41.4496 51.9338 41.1286 51.7028 40.8073C51.3218 40.2775 50.9936 39.8554 50.9374 39.8959C50.9026 39.8611 50.868 39.8265 50.8332 39.7917C50.8593 39.7913 50.8853 39.7906 50.9113 39.7902C50.9545 39.7894 50.6657 39.3325 50.2697 38.7746C49.8736 38.2167 49.5338 37.7721 49.4791 37.8125C49.4443 37.7777 49.4097 37.7431 49.3749 37.7084C49.4009 37.7071 49.427 37.7059 49.453 37.7046C49.597 37.6975 48.208 35.7821 48.0207 35.7292C47.9859 35.6944 47.9513 35.6598 47.9166 35.625C47.9401 35.625 47.9638 35.625 47.9876 35.625C48.0268 35.625 47.7399 35.1538 47.3503 34.5782C46.9609 34.0025 46.6243 33.5571 46.5624 33.6459C46.5276 33.6111 46.493 33.5765 46.4582 33.5417C46.4751 33.5156 46.4918 33.4896 46.5086 33.4636C46.5363 33.4204 46.4426 33.28 46.0416 32.9167C46.0068 32.8819 45.9722 32.8473 45.9374 32.8125C45.9634 32.8113 45.9895 32.8098 46.0155 32.8084C46.1572 32.8009 43.8307 29.5325 43.6457 29.4792C43.6109 29.4444 43.5763 29.4098 43.5416 29.375C43.5416 29.3402 43.5416 29.3056 43.5416 29.2709C43.5416 29.2361 43.5416 29.2015 43.5416 29.1667C43.2291 28.75 42.9166 28.3334 42.6041 27.9167C42.6041 27.8819 42.6041 27.8473 42.6041 27.8125C42.4305 27.6042 42.2568 27.3959 42.0832 27.1875C42.0832 27.1527 42.0832 27.1181 42.0832 27.0834C41.9443 26.9098 41.8055 26.7361 41.6666 26.5625C41.6666 26.5279 41.6666 26.4929 41.6666 26.4584C41.3541 26.0417 41.0416 25.625 40.7291 25.2084C40.7291 25.1738 40.7291 25.1388 40.7291 25.1042C40.3818 24.6529 40.0347 24.2013 39.6874 23.75ZM144.271 90.2604C144.271 90.2319 144.247 90.2084 144.219 90.2084C144.19 90.2084 144.167 90.2319 144.167 90.2604C144.167 90.289 144.19 90.3125 144.219 90.3125C144.247 90.3125 144.271 90.289 144.271 90.2604Z" fill="#3FC55F"/>
<path d="M132.5 93.125C132.337 93.034 132.083 92.6944 131.829 92.3113C131.575 91.9282 131.153 91.31 130.891 90.9375C130.629 90.565 130.112 89.8142 129.742 89.2688C129.371 88.7232 129.02 88.2192 128.961 88.149C128.926 88.1061 128.89 88.0636 128.854 88.0209C128.91 87.9805 129.73 89.129 130.713 90.5469C131.309 91.4063 131.904 92.2657 132.5 93.125Z" fill="#3FC55F"/>
<path d="M106.666 55.8334C106.504 55.7423 106.247 55.4027 105.991 55.0196C105.735 54.6365 105.173 53.7956 104.742 53.1511C104.48 52.7604 104.219 52.3698 103.958 51.9792C104.133 52.1211 104.742 52.9884 105.425 53.9979C105.839 54.6098 106.253 55.2215 106.666 55.8334Z" fill="#3FC55F"/>
<path d="M118.333 72.9167C118.179 72.6286 117.488 71.6161 115.987 69.4792C115.565 68.8777 114.912 67.9402 114.537 67.3959C114.162 66.8515 113.715 66.2071 113.542 65.9636C113.438 65.8159 113.334 65.6686 113.229 65.5209C113.414 65.5736 118.555 72.9071 118.411 72.9134C118.385 72.9146 118.359 72.9157 118.333 72.9167Z" fill="#3FC55F"/>
<path d="M50.8333 39.7917C49.9377 38.4438 49.6329 37.9986 49.5783 37.9326C49.5452 37.8926 49.5123 37.8526 49.4791 37.8126C49.5339 37.7721 49.8737 38.2167 50.2698 38.7746C50.6658 39.3326 50.9545 39.7894 50.9114 39.7903C50.8854 39.7907 50.8593 39.7913 50.8333 39.7917Z" fill="#3FC55F"/>
<path d="M121.666 77.5C121.509 77.4123 121.288 77.1192 121.074 76.7923C120.86 76.4655 120.578 76.0457 120.446 75.8594C120.367 75.7467 120.288 75.6336 120.208 75.5209C120.444 75.7227 120.773 76.168 121.09 76.6407C121.282 76.9271 121.474 77.2136 121.666 77.5Z" fill="#3FC55F"/>
<path d="M128.75 87.9167C128.025 86.8269 127.533 86.1002 127.188 85.599C126.98 85.295 126.771 84.9915 126.562 84.6875C126.748 84.7404 128.971 87.9056 128.828 87.9127C128.802 87.9142 128.776 87.9154 128.75 87.9167Z" fill="#3FC55F"/>
<path d="M45.9373 32.8125C44.8902 31.2302 44.1004 30.0744 43.7758 29.6496C43.7325 29.5929 43.689 29.5361 43.6456 29.4792C43.8306 29.5325 46.1571 32.8009 46.0154 32.8084C45.9894 32.8098 45.9633 32.8113 45.9373 32.8125Z" fill="#3FC55F"/>
<path d="M125.417 83.125C125.296 82.904 125.039 82.5173 124.767 82.1229C124.496 81.7288 124.016 81.0196 123.7 80.5469C123.508 80.2604 123.316 79.974 123.125 79.6875C125.022 82.3467 125.538 83.1202 125.495 83.1219C125.469 83.1229 125.443 83.124 125.417 83.125Z" fill="#3FC55F"/>
<path d="M126.458 84.5834C125.907 83.7357 125.696 83.4311 125.634 83.3594C125.596 83.3159 125.558 83.2727 125.521 83.2292C125.577 83.1888 125.823 83.4925 126.104 83.8782C126.385 84.2636 126.579 84.5798 126.536 84.5813C126.51 84.5819 126.484 84.5827 126.458 84.5834Z" fill="#3FC55F"/>
<path d="M113.125 65.4167C111.593 63.11 111.101 62.3835 111.043 62.314C111.008 62.2717 110.973 62.2296 110.937 62.1875C111.119 62.241 113.344 65.4092 113.203 65.414C113.177 65.4148 113.151 65.4156 113.125 65.4167Z" fill="#3FC55F"/>
<path d="M110.833 62.0833C110.551 61.6392 110.246 61.1704 109.974 60.7552C109.809 60.5033 109.644 60.2519 109.479 60C110.65 61.6123 110.954 62.081 110.911 62.0819C110.885 62.0823 110.859 62.0829 110.833 62.0833Z" fill="#3FC55F"/>
<path d="M49.3748 37.7084C48.8127 36.8606 48.5079 36.4152 48.335 36.1719C48.2302 36.0244 48.1254 35.8767 48.0206 35.7292C48.2079 35.7821 49.5969 37.6975 49.4529 37.7046C49.4269 37.7059 49.4008 37.7071 49.3748 37.7084Z" fill="#3FC55F"/>
<path d="M43.5416 29.1667C43.3841 29.0788 43.1731 28.7975 42.9712 28.485C42.8487 28.2956 42.7266 28.1063 42.6041 27.9167C42.9166 28.3334 43.2291 28.75 43.5416 29.1667Z" fill="#3FC55F"/>
<path d="M123.125 79.5834C122.967 79.4957 122.756 79.2142 122.554 78.9017C122.432 78.7121 122.31 78.5227 122.187 78.3334C122.5 78.75 122.812 79.1667 123.125 79.5834Z" fill="#3FC55F"/>
<path d="M46.4583 33.5417C46.3193 33.3334 46.1806 33.125 46.0416 32.9167C46.4427 33.28 46.5364 33.4204 46.5087 33.4636C46.4918 33.4896 46.4752 33.5156 46.4583 33.5417Z" fill="#3FC55F"/>
<path d="M133.958 95.4167C133.819 95.1737 133.681 94.9304 133.542 94.6875C133.986 95.2465 134.079 95.4106 134.036 95.4127C134.01 95.4142 133.984 95.4154 133.958 95.4167Z" fill="#3FC55F"/>
<path d="M144.271 90.2605C144.271 90.289 144.247 90.3125 144.219 90.3125C144.19 90.3125 144.167 90.289 144.167 90.2605C144.167 90.2319 144.19 90.2084 144.219 90.2084C144.247 90.2084 144.271 90.2319 144.271 90.2605Z" fill="#3FC55F"/>
<path d="M173.437 75.5209C173.437 75.4863 173.437 75.4513 173.437 75.4167C173.472 75.3821 173.507 75.3471 173.542 75.3125C174.022 74.5456 174.311 74.1121 174.494 73.8542C175.012 73.125 177.33 69.6959 177.457 69.4721C177.52 69.3621 177.637 69.1898 177.717 69.0886C177.799 68.9875 178.036 68.6475 178.245 68.3327C178.455 68.0179 179.041 67.1579 179.547 66.4219C180.774 64.64 180.736 64.6956 181.094 64.1202C181.266 63.8436 181.505 63.4946 181.626 63.3448C181.747 63.1952 182.415 62.2292 183.111 61.1979C183.807 60.1667 184.589 59.0184 184.85 58.6459C185.111 58.2734 185.721 57.3829 186.206 56.6667C186.691 55.9504 187.416 54.8959 187.817 54.3229C188.217 53.75 189.022 52.5781 189.606 51.7188C190.189 50.8594 190.903 49.8123 191.192 49.3921C191.482 48.9717 191.767 48.5431 191.827 48.4396C191.886 48.3361 192.002 48.1711 192.083 48.0729C192.165 47.9748 192.28 47.809 192.34 47.7046C192.399 47.6004 192.843 46.9373 193.326 46.2315C193.809 45.5254 194.524 44.4792 194.914 43.9063C195.304 43.3334 195.772 42.6538 195.953 42.3959C196.468 41.6636 198.374 38.8613 198.49 38.6654C198.547 38.5688 198.783 38.2317 199.015 37.9167C199.247 37.6017 199.809 36.7888 200.265 36.1106C201.258 34.6334 202.132 33.3536 204.189 30.3646C204.465 29.9636 204.994 29.1902 205.364 28.6459C205.734 28.1015 206.17 27.4688 206.331 27.2396C206.493 27.0104 206.659 26.7525 206.7 26.6667C206.741 26.5809 207.026 26.1588 207.334 25.7292C207.642 25.2996 208.157 24.5613 208.478 24.0886C208.673 23.8021 208.868 23.5156 209.062 23.2292C209.158 23.1284 209.254 23.0275 209.349 22.9269C209.506 22.7606 209.752 22.4575 209.896 22.2536C209.983 22.13 210.069 22.0061 210.156 21.8825C220.937 21.8815 231.719 21.8802 242.5 21.8792C253.281 21.8779 264.062 21.8769 274.844 21.8759C274.618 22.2573 274.392 22.6392 274.167 23.0209C273.884 23.4619 273.685 23.7784 273.542 24.0086C273.399 24.2388 273.204 24.5209 273.108 24.6354C272.926 24.8523 272.326 25.7123 271 27.6563C270.57 28.2865 270.004 29.1069 269.742 29.4792C269.481 29.8515 268.963 30.6015 268.591 31.1459C268.219 31.6902 267.679 32.4636 267.391 32.8646C267.102 33.2656 266.753 33.7577 266.614 33.9584C266.475 34.159 266.213 34.5338 266.031 34.7917C265.195 35.9748 263.511 38.4075 263.385 38.6138C263.328 38.7075 263.07 39.0773 262.812 39.435C262.555 39.7929 262.156 40.3548 261.927 40.6836C261.698 41.0121 261.358 41.4852 261.172 41.7344C261.059 41.8854 260.946 42.0365 260.833 42.1875C260.774 42.2396 260.714 42.2915 260.655 42.3436C260.499 42.4802 258.181 42.5059 223.021 42.6042C222.986 42.6042 222.951 42.6042 222.917 42.6042C222.778 42.7431 222.639 42.8819 222.5 43.0209C222.352 43.2902 221.471 44.5965 220.744 45.625C219.797 46.9642 218.59 48.6875 218.082 49.4271C217.768 49.8854 217.296 50.5652 217.034 50.9375C216.319 51.9556 215.171 53.6423 215.041 53.8696C214.977 53.98 214.833 54.174 214.721 54.3009C214.609 54.4275 214.439 54.6484 214.343 54.7917C214.247 54.935 213.957 55.3567 213.699 55.7292C213.44 56.1017 213.017 56.7109 212.759 57.0834C212.501 57.4559 211.942 58.2527 211.517 58.8542C210.484 60.315 208.934 62.5723 208.793 62.82C208.73 62.9296 208.606 63.1019 208.516 63.2025C208.425 63.3029 208.046 63.8306 207.671 64.375C207.297 64.9194 206.672 65.8254 206.282 66.389C205.892 66.9525 205.521 67.505 205.457 67.6169C205.393 67.7288 205.249 67.924 205.137 68.0509C205.024 68.1775 204.663 68.6798 204.335 69.1667C204.007 69.6536 203.394 70.5444 202.974 71.1459C202.553 71.7473 201.794 72.8421 201.287 73.5786C200.78 74.315 200.177 75.1884 199.948 75.5194C199.719 75.8504 199.26 76.5136 198.929 76.9931C198.598 77.4725 198.023 78.2865 197.652 78.8021C197.282 79.3177 196.662 80.2023 196.276 80.7679C195.889 81.3336 195.479 81.9279 195.365 82.0888C194.951 82.6698 192.862 85.7554 192.749 85.9521C192.685 86.0629 192.541 86.2573 192.428 86.3842C192.316 86.5109 192.051 86.8725 191.84 87.1875C191.628 87.5025 191.106 88.2527 190.68 88.8542C190.253 89.4556 189.503 90.5338 189.013 91.25C188.523 91.9663 187.774 93.0444 187.35 93.6459C186.925 94.2473 186.269 95.1848 185.891 95.7292C185.513 96.2736 184.97 97.0469 184.684 97.4479C184.399 97.849 183.969 98.4584 183.729 98.8021C183.16 99.6194 182.706 100.264 182.448 100.624C182.096 101.116 181.207 102.394 181.042 102.646C180.66 103.23 180.466 103.495 180.367 103.566C180.308 103.608 179.686 103.643 178.984 103.644C178.559 103.645 178.134 103.645 177.708 103.646C177.677 103.62 177.646 103.594 177.615 103.568C177.564 103.525 175.807 101.205 173.711 98.4127C172.441 96.7204 171.171 95.0281 169.9 93.3359C169.864 91.9461 169.828 90.5565 169.792 89.1667C169.792 88.9238 169.792 88.6804 169.792 88.4375C169.81 87.1879 169.827 85.9384 169.845 84.6888C169.863 83.4392 169.881 82.1896 169.899 80.94C169.999 80.7919 170.099 80.644 170.199 80.4961C170.365 80.2519 170.727 79.7073 171.005 79.2859C171.283 78.8642 171.78 78.1142 172.108 77.6192C172.437 77.124 172.871 76.4492 173.437 75.5209Z" fill="white"/>
<path d="M169.792 80.7292C171.643 78.0469 172.018 77.509 172.712 76.5365C172.954 76.198 173.196 75.8594 173.437 75.5209C172.871 76.4492 172.437 77.124 172.108 77.6192C171.78 78.1142 171.283 78.8642 171.005 79.2859C170.727 79.7073 170.365 80.2519 170.199 80.4961C170.099 80.644 169.999 80.7919 169.899 80.94C169.881 82.1896 169.863 83.4392 169.845 84.6888C169.827 85.9384 169.81 87.188 169.792 88.4375C169.792 85.868 169.792 83.2988 169.792 80.7292Z" fill="white"/>
<path d="M120.729 103.646C120.556 103.646 120.382 103.646 120.208 103.646C116.102 103.62 111.996 103.594 107.891 103.568C103.784 103.542 99.6788 103.516 95.5728 103.49C95.3043 103.108 95.0359 102.726 94.7674 102.344C94.3243 101.714 92.8759 99.6275 91.5484 97.7083C87.7699 92.2454 85.7095 89.2823 84.3484 87.3533C83.248 85.7938 81.5182 83.3113 76.7203 76.4058C76.0438 75.4321 75.1053 74.0965 74.6349 73.4375C73.2338 71.4754 70.2032 67.1713 67.4472 63.2292C66.0251 61.1954 64.682 59.3023 64.462 59.0229C64.2422 58.7431 64.0624 58.4735 64.0624 58.4235C64.0624 58.3719 69.5878 58.344 76.7968 58.359C81.0415 58.3679 85.2863 58.3765 89.5311 58.3854C89.8782 58.8773 90.2257 59.3692 90.5728 59.861C91.1457 60.6725 92.1301 62.0927 92.7603 63.0167C93.3905 63.9408 94.238 65.1752 94.6436 65.7598C95.4522 66.9252 101.404 75.5315 103.612 78.7273C104.375 79.8319 106.694 83.16 108.765 86.1231C110.837 89.086 113.002 92.19 113.577 93.0208C114.152 93.8517 114.886 94.9063 115.208 95.3646C115.531 95.8229 116.28 96.901 116.874 97.7604C118.537 100.166 119.564 101.638 120.238 102.575C120.576 103.046 120.825 103.479 120.729 103.646Z" fill="white"/>
<path d="M63.8541 58.2292C72.4779 58.2467 81.1018 58.2638 89.7256 58.2813C89.9283 58.5763 90.1306 58.8717 90.3331 59.1667C90.6673 59.6536 91.0833 60.2577 91.2575 60.509C92.9223 62.9088 93.7725 64.1406 93.9583 64.424C94.421 65.1288 94.9875 65.9506 95.3604 66.4584C95.5918 66.7734 95.8281 67.1094 95.8854 67.2048C96.0037 67.4019 97.1154 69.0175 97.9881 70.2604C98.9112 71.5754 99.3829 72.2569 100.258 73.5417C100.707 74.2006 101.153 74.8334 101.251 74.9479C101.348 75.0625 101.458 75.2265 101.496 75.3125C101.533 75.3986 101.819 75.8204 102.13 76.25C102.442 76.6796 102.874 77.2892 103.091 77.6042C103.307 77.9192 103.673 78.435 103.904 78.75C104.134 79.065 104.37 79.3998 104.427 79.4938C104.565 79.7196 105.932 81.7177 106.198 82.0813C106.312 82.2381 106.498 82.5021 106.611 82.6677C106.724 82.8331 107.005 83.2267 107.236 83.5417C107.467 83.8567 107.703 84.1927 107.76 84.2881C107.884 84.4948 109.16 86.3346 109.59 86.9271C109.756 87.1563 110.209 87.8054 110.597 88.3698C110.985 88.934 111.396 89.5256 111.51 89.6842C111.625 89.8427 111.94 90.295 112.211 90.6894C113.688 92.8392 114.331 93.7631 115.102 94.8438C115.388 95.2448 116.021 96.1588 116.509 96.875C116.996 97.5913 117.465 98.2709 117.551 98.3854C117.637 98.5 117.945 98.9454 118.236 99.375C119.315 100.971 120.339 102.463 120.702 102.969C121.04 103.441 121.06 103.504 120.911 103.646C120.82 103.732 120.742 103.767 120.738 103.724C120.735 103.698 120.732 103.672 120.729 103.646C120.825 103.479 120.576 103.046 120.238 102.575C119.564 101.638 118.537 100.166 116.874 97.7604C116.28 96.9011 115.531 95.8229 115.208 95.3646C114.886 94.9063 114.152 93.8517 113.577 93.0209C113.002 92.19 110.837 89.0861 108.765 86.1231C106.694 83.16 104.375 79.8319 103.612 78.7273C101.404 75.5315 95.4523 66.9252 94.6437 65.7598C94.2381 65.1752 93.3906 63.9409 92.7604 63.0167C92.1302 62.0927 91.1458 60.6725 90.5729 59.8611C90.2258 59.3692 89.8783 58.8773 89.5312 58.3854C85.2864 58.3765 81.0416 58.3679 76.7968 58.359C69.5879 58.344 64.0625 58.3719 64.0625 58.4236C64.0625 58.4736 64.2423 58.7431 64.462 59.0229C64.682 59.3023 66.0252 61.1954 67.4473 63.2292C70.2033 67.1713 73.2339 71.4754 74.635 73.4375C75.1054 74.0965 76.0439 75.4321 76.7204 76.4059C81.5183 83.3113 83.2481 85.7938 84.3485 87.3534C85.7095 89.2823 87.77 92.2454 91.5485 97.7084C92.876 99.6275 94.3243 101.714 94.7675 102.344C95.036 102.726 95.3043 103.108 95.5729 103.49C99.6789 103.516 103.785 103.542 107.891 103.568C111.996 103.594 116.102 103.62 120.208 103.646C101.196 103.723 95.6302 103.711 95.5729 103.669C95.5156 103.628 95.371 103.453 95.2518 103.281C95.1323 103.109 94.8277 102.67 94.5748 102.305C94.3216 101.941 93.9898 101.472 93.8373 101.264C93.6848 101.056 93.1539 100.3 92.6575 99.5834C92.161 98.8671 91.5025 97.9296 91.1935 97.5C90.885 97.0704 90.3143 96.2571 89.9254 95.6927C89.5366 95.1286 89.125 94.5369 89.0104 94.3784C88.8958 94.2198 88.5804 93.7675 88.3095 93.3731C86.356 90.5294 85.7681 89.6861 84.9418 88.5417C84.6314 88.1121 83.9758 87.1746 83.485 86.4584C82.9941 85.7421 82.4397 84.9454 82.2535 84.6875C81.8279 84.0986 81.2025 83.1984 80.1545 81.6667C79.2666 80.369 78.9579 79.9242 78.2104 78.8667C77.9423 78.4875 77.2245 77.4504 76.6156 76.5625C76.0062 75.6746 75.2554 74.5963 74.9464 74.1667C74.6379 73.7371 74.0745 72.9402 73.6954 72.3959C73.3158 71.8515 72.8464 71.1954 72.6522 70.9375C72.4579 70.6796 71.981 70.0125 71.592 69.4546C71.2033 68.8967 70.6616 68.1234 70.3885 67.7359C70.1152 67.3484 69.6829 66.7267 69.4283 66.3542C69.1737 65.9817 68.73 65.349 68.4429 64.9479C68.1556 64.5469 67.6947 63.8906 67.4187 63.4896C66.8033 62.5956 66.1468 61.6561 65.4997 60.7431C65.2304 60.3631 64.75 59.6419 64.432 59.1406C64.2393 58.8367 64.0468 58.5331 63.8541 58.2292Z" fill="white"/>
<path d="M199.162 103.177C199.327 102.948 199.783 102.299 200.174 101.734C200.565 101.17 200.979 100.579 201.094 100.42C201.208 100.261 201.525 99.8092 201.797 99.4148C202.069 99.0204 202.608 98.2465 202.995 97.6948C204.397 95.6942 204.638 95.3469 205.36 94.2879C205.764 93.6958 206.146 93.12 206.21 93.0081C206.273 92.8963 206.417 92.7011 206.53 92.5742C206.643 92.4475 207.002 91.9452 207.328 91.4583C207.654 90.9715 208.268 90.0806 208.693 89.4792C209.118 88.8777 209.961 87.6588 210.568 86.7708C211.174 85.8829 212.019 84.664 212.446 84.0625C212.873 83.4611 213.623 82.3829 214.112 81.6667C214.602 80.9504 215.259 80.0129 215.573 79.5833C215.887 79.1538 216.189 78.7083 216.246 78.5938C216.302 78.4792 216.486 78.1979 216.656 77.9688C216.825 77.7396 217.377 76.95 217.883 76.214C218.388 75.4781 218.896 74.7461 219.01 74.5871C219.265 74.2344 220.221 72.8471 220.365 72.6221C220.422 72.5325 220.752 72.0579 221.097 71.5679C221.442 71.0781 221.911 70.4017 222.139 70.0652C222.366 69.729 222.623 69.3496 222.708 69.2223C222.794 69.0952 222.982 68.8259 223.125 68.6238C223.268 68.4217 223.62 67.9161 223.906 67.5C224.193 67.0838 224.521 66.6146 224.635 66.4573C224.849 66.164 225.593 65.0783 227.109 62.8494C227.582 62.1536 228.391 60.9661 228.906 60.2104C229.422 59.4546 229.914 58.7234 230 58.585C230.052 58.5013 230.104 58.4175 230.156 58.3338C233.672 58.3338 237.188 58.3338 240.703 58.3336C246.504 58.3334 251.25 58.354 251.25 58.3794C251.25 58.465 250.38 59.8423 250.19 60.0588C250.085 60.1769 250 60.3015 250 60.335C250 60.3686 249.609 60.9817 249.131 61.6977C248.401 62.7906 247.844 63.6448 247.242 64.5944C247.183 64.6865 246.995 64.9679 246.823 65.2194C246.651 65.4713 246.487 65.7254 246.458 65.7846C246.417 65.8708 245.38 67.4223 243.548 70.1415C243.465 70.2642 242.625 71.5365 241.682 72.9688C239.997 75.5269 235.309 82.614 234.963 83.125C234.003 84.5463 233.795 84.8583 233.75 84.9517C233.691 85.0729 230.792 89.4015 230.328 90.0604C230.164 90.2942 230.011 90.5298 229.989 90.5842C229.956 90.6642 228.565 92.7465 227.979 93.5938C227.822 93.8202 227.303 94.6156 227.135 94.885C227.034 95.0483 225.083 97.9617 224.507 98.8096C224.348 99.0429 224.172 99.3054 224.115 99.3929C224.057 99.4806 223.885 99.735 223.731 99.9583C223.578 100.182 222.945 101.104 222.325 102.009C221.949 102.557 221.574 103.105 221.198 103.653C217.474 103.66 213.75 103.668 210.026 103.675C203.882 103.688 198.856 103.674 198.858 103.646C198.859 103.617 198.997 103.406 199.162 103.177Z" fill="#3FC55F"/>
</svg>
